<svg id="svg" xmlns="http://www.w3.org/2000/svg" xmlns:xlink="http://www.w3.org/1999/xlink" width="400" height="574.3589743589744" viewBox="0, 0, 400,574.3589743589744" version="1.1"><g id="svgg"><path id="path0" d="M139.487 3.892 C 73.009 18.591,29.894 57.896,9.583 122.317 C 4.692 137.831,-1.672 173.595,0.198 175.063 C 2.222 176.651,65.517 203.077,67.297 203.077 C 68.392 203.077,69.919 199.615,70.691 195.385 C 78.765 151.149,133.530 106.667,179.918 106.667 C 190.615 106.667,189.052 112.860,190.534 64.615 L 191.795 23.590 204.011 66.154 C 219.461 119.984,217.646 119.716,242.267 71.814 C 252.700 51.517,261.438 35.133,261.687 35.404 C 262.077 35.831,252.411 95.459,249.386 111.282 C 247.627 120.484,252.435 118.519,291.078 94.246 L 327.179 71.569 299.631 99.259 L 272.082 126.949 277.064 130.983 C 283.143 135.906,278.511 138.826,326.862 99.593 C 373.543 61.715,370.395 67.008,354.822 52.590 C 309.783 10.893,209.942 -11.687,139.487 3.892 M161.233 122.126 C 105.066 136.264,72.473 183.271,83.247 234.598 C 88.288 258.614,88.380 320.875,83.431 358.856 C 81.602 372.894,80.312 384.572,80.565 384.808 C 80.819 385.045,106.945 380.069,138.625 373.751 L 196.225 362.263 251.446 375.677 C 281.817 383.054,306.908 388.920,307.202 388.710 C 307.497 388.501,303.675 374.110,298.708 356.729 C 293.742 339.349,285.714 308.051,280.867 287.179 C 270.484 242.459,273.423 246.464,244.783 238.011 C 220.152 230.741,219.575 230.233,219.515 215.759 C 219.492 210.224,220.157 209.158,223.077 210.046 C 226.765 211.168,282.453 223.590,283.793 223.590 C 284.204 223.590,285.151 232.128,285.899 242.564 C 287.557 265.709,296.326 293.333,302.016 293.333 C 307.691 293.333,307.468 204.926,301.750 188.309 C 284.318 137.639,219.982 107.338,161.233 122.126 M222.646 130.319 C 278.445 144.647,310.725 199.383,297.612 257.436 C 296.067 264.274,293.333 245.891,293.333 228.668 C 293.333 217.070,293.435 217.121,252.308 208.214 C 232.564 203.939,215.126 199.961,213.556 199.376 C 211.094 198.459,211.709 234.864,214.199 237.431 C 214.470 237.711,225.768 241.268,239.306 245.336 L 263.920 252.733 271.696 285.854 C 275.973 304.070,283.003 331.870,287.319 347.630 C 291.635 363.391,294.940 376.513,294.664 376.789 C 294.387 377.066,272.401 372.072,245.805 365.691 L 197.450 354.090 192.953 334.481 C 165.086 212.967,163.443 168.561,185.575 135.117 C 191.721 125.829,200.657 124.673,222.646 130.319 M178.212 373.750 L 168.732 375.732 167.658 390.430 C 167.067 398.514,166.718 405.230,166.882 405.354 C 167.045 405.479,172.949 405.137,180.000 404.595 L 192.821 403.609 192.821 392.574 C 192.821 379.281,190.334 379.571,227.680 388.503 C 261.828 396.670,257.503 393.169,269.754 422.564 C 275.161 435.538,281.199 449.933,283.172 454.551 L 286.759 462.949 243.380 479.574 C 219.521 488.717,198.431 496.788,196.513 497.510 C 193.495 498.645,192.943 497.071,192.410 485.830 L 191.795 472.838 176.704 470.142 C 158.801 466.945,160.850 465.286,159.320 484.222 L 158.068 499.726 173.350 504.222 C 181.755 506.695,190.028 508.718,191.734 508.718 C 194.318 508.718,297.282 468.460,299.028 466.767 C 299.339 466.465,291.769 448.792,282.205 427.493 L 264.816 388.768 230.357 380.081 C 193.592 370.814,192.744 370.711,178.212 373.750 M152.481 378.861 C 147.285 379.874,146.260 382.037,144.425 395.872 L 143.061 406.154 152.337 406.154 C 163.150 406.154,164.103 404.729,164.103 388.550 C 164.103 376.752,163.949 376.624,152.481 378.861 M130.806 382.945 C 127.775 383.740,121.026 400.093,121.026 406.644 C 121.026 411.415,138.195 407.154,139.530 402.051 C 144.763 382.049,143.637 379.583,130.806 382.945 M110.433 387.021 C 107.505 387.797,105.536 391.370,99.043 407.692 C 98.318 409.514,100.687 410.256,107.229 410.256 C 116.389 410.256,116.448 410.211,118.694 401.290 C 119.936 396.358,121.529 390.820,122.234 388.982 C 123.533 385.597,118.787 384.808,110.433 387.021 M165.267 420.728 C 163.570 435.729,162.138 434.213,178.974 435.244 L 192.821 436.092 192.821 422.148 L 192.821 408.205 179.752 408.205 L 166.684 408.205 165.267 420.728 M139.615 420.812 C 136.934 433.311,136.010 432.027,148.938 433.766 L 159.414 435.176 160.710 427.332 C 163.439 410.814,163.153 410.256,151.965 410.256 L 141.878 410.256 139.615 420.812 M118.145 414.042 C 117.555 414.996,116.460 419.611,115.710 424.298 L 114.347 432.821 123.702 432.821 C 133.650 432.821,133.629 432.843,136.420 418.974 L 137.762 412.308 128.489 412.308 C 123.389 412.308,118.734 413.088,118.145 414.042 M93.229 421.473 C 89.211 431.089,88.969 430.769,100.263 430.769 C 110.223 430.769,110.280 430.731,112.353 422.564 L 114.436 414.359 105.318 414.359 C 96.853 414.359,95.988 414.868,93.229 421.473 M84.569 441.453 C 81.518 449.538,82.689 450.772,94.232 451.630 L 103.335 452.308 105.896 443.590 L 108.457 434.872 97.755 434.872 C 87.593 434.872,86.928 435.204,84.569 441.453 M110.814 439.882 C 105.309 454.361,105.435 454.693,117.012 456.228 C 129.669 457.908,128.886 458.471,130.526 446.505 L 131.840 436.923 125.575 436.923 C 122.129 436.923,117.863 436.368,116.094 435.689 C 113.888 434.843,112.229 436.161,110.814 439.882 M134.650 444.615 C 132.354 458.504,132.439 458.637,145.128 460.968 C 151.615 462.160,157.026 463.007,157.151 462.850 C 160.665 458.446,159.282 439.261,155.375 438.213 C 142.014 434.633,135.993 436.493,134.650 444.615 M163.344 443.590 C 162.664 446.128,162.095 451.604,162.079 455.759 C 162.049 463.889,162.495 464.204,177.436 466.597 C 181.949 467.320,187.256 468.386,189.231 468.966 C 192.426 469.904,192.821 468.315,192.821 454.497 L 192.821 438.974 178.701 438.974 C 165.792 438.974,164.475 439.370,163.344 443.590 M75.767 462.869 C 71.155 473.627,71.469 474.240,83.315 477.603 C 95.390 481.031,95.367 481.043,98.308 469.568 C 101.386 457.559,100.633 456.391,88.659 454.588 L 79.883 453.266 75.767 462.869 M102.768 466.122 C 101.384 470.934,99.802 476.438,99.253 478.351 C 98.384 481.382,113.521 488.205,121.115 488.205 C 122.300 488.205,127.179 468.200,127.179 463.341 C 127.179 462.452,123.718 461.140,119.487 460.427 C 115.256 459.713,110.330 458.734,108.539 458.250 C 106.178 457.613,104.593 459.773,102.768 466.122 M129.933 469.231 C 129.148 472.333,128.438 478.464,128.355 482.854 L 128.205 490.837 140.946 494.465 C 155.790 498.693,155.376 499.114,156.193 478.975 C 156.685 466.862,156.597 466.647,150.654 465.371 C 136.404 462.313,131.450 463.236,129.933 469.231 M257.436 494.539 C 225.846 508.004,198.154 519.487,195.897 520.057 C 193.641 520.627,162.294 511.886,126.238 500.633 C 90.182 489.380,60.330 480.525,59.900 480.954 C 58.076 482.779,58.664 531.274,60.533 533.081 C 63.115 535.578,188.160 574.348,193.769 574.391 C 196.068 574.409,224.932 563.101,257.911 549.263 L 317.874 524.103 317.911 496.923 C 317.932 481.974,317.256 469.814,316.410 469.901 C 315.564 469.987,289.026 481.075,257.436 494.539 M309.744 500.004 L 309.744 517.956 254.872 541.059 C 224.692 553.766,199.308 564.149,198.462 564.133 C 197.615 564.116,196.923 556.356,196.923 546.889 L 196.923 529.675 239.487 511.657 C 262.897 501.747,288.051 491.064,295.385 487.918 C 302.718 484.772,308.949 482.165,309.231 482.125 C 309.513 482.084,309.744 490.130,309.744 500.004 " stroke="none" fill="#000000" fill-rule="evenodd"></path></g></svg>