<?xml version="1.0" encoding="UTF-8" standalone="no"?>
<svg
   xmlns:dc="http://purl.org/dc/elements/1.1/"
   xmlns:cc="http://creativecommons.org/ns#"
   xmlns:rdf="http://www.w3.org/1999/02/22-rdf-syntax-ns#"
   xmlns:svg="http://www.w3.org/2000/svg"
   xmlns="http://www.w3.org/2000/svg"
   viewBox="0 0 1024 1024"
   height="305"
   width="305"
   xml:space="preserve"
   id="svg2"
   version="1.1"><metadata
     id="metadata8"><rdf:RDF><cc:Work
         rdf:about=""><dc:format>image/svg+xml</dc:format><dc:type
           rdf:resource="http://purl.org/dc/dcmitype/StillImage" /></cc:Work></rdf:RDF></metadata><defs
     id="defs6" /><g
     transform="matrix(7.111111,0,0,-7.1111111,0,1024)"
     id="g10"><g
       transform="scale(0.1)"
       id="g12"><path
         id="path14"
         style="fill:#a69349;fill-opacity:1;fill-rule:evenodd;stroke:none"
         d="M 1432.79,721.531 C 1432.79,327.02 1113,7.21094 718.484,7.21094 323.988,7.21094 4.1875,327.02 4.1875,721.531 c 0,394.479 319.8005,714.289 714.2965,714.289 394.516,0 714.306,-319.81 714.306,-714.289" /><path
         id="path16"
         style="fill:#192c66;fill-opacity:1;fill-rule:nonzero;stroke:none"
         d="M 720.008,1440 C 322.996,1440 0,1117.01 0,719.996 0,322.988 322.996,0 720.008,0 c 397.012,0 720.012,322.988 720.012,719.996 0,397.014 -323,720.004 -720.012,720.004 z m 0,-18.64 c 387.342,0 701.352,-314.02 701.352,-701.364 0,-387.355 -314.01,-701.3476 -701.352,-701.3476 -387.34,0 -701.3517,313.9926 -701.3517,701.3476 0,387.344 314.0117,701.364 701.3517,701.364" /><path
         id="path18"
         style="fill:#192c66;fill-opacity:1;fill-rule:nonzero;stroke:none"
         d="m 718.246,394.121 c 111.891,0 175.399,15.738 273.66,120 L 986,518.359 c -11.848,7.688 -16.074,11.977 -4.238,30.743 11.859,18.812 63.518,117.027 74.558,183.613 14.42,-23.906 22.88,-63.195 26.25,-74.274 21.19,22.2 44.93,40.957 59.31,56.36 -2.54,-30.77 -17.78,-113.602 -40.68,-155.469 15.26,-9.383 12.73,-7.633 21.21,-12.828 8.46,-5.086 11.85,-11.078 1.69,-28.988 C 1054.08,394.07 953.469,327.551 809.793,288.648 c 0,-9.437 3.402,-17.968 -15.223,-21.359 -18.582,-3.449 -41.593,-5.141 -76.324,-5.141 -34.742,0 -57.59,1.692 -76.246,5.141 -18.641,3.391 -15.262,11.922 -15.262,21.359 -143.687,38.903 -244.289,105.422 -314.289,228.868 -10.152,17.91 -6.789,23.902 1.68,28.988 8.469,5.195 5.937,3.445 21.207,12.828 -22.887,41.867 -38.109,124.699 -40.656,155.469 14.375,-15.403 38.105,-34.16 59.297,-56.36 3.378,11.079 11.855,45.231 26.238,69.188 11.031,-66.637 67.801,-163.156 79.648,-181.977 1.809,-2.804 10.043,-16.746 1.692,-22.152 l -13.539,-7.684 c 84.699,-99.964 158.41,-121.695 270.23,-121.695 v 0" /><path
         id="path20"
         style="fill:#ffffff;fill-opacity:1;fill-rule:nonzero;stroke:none"
         d="M 1006.89,795.152 V 975.078 H 427.543 l 0.016,-179.926 h 579.331" /><path
         id="path22"
         style="fill:#ffffff;fill-opacity:1;fill-rule:nonzero;stroke:none"
         d="m 461.863,614.879 c 0,0 -0.215,-0.055 0.063,-0.641 78.379,-174.847 248.41,-230.129 250.648,-230.976 l 4.637,-1.641 3.5,1.27 c 2.242,0.789 175.766,58.14 251.957,232.093 l -510.805,-0.105" /><path
         id="path24"
         style="fill:#ffffff;fill-opacity:1;fill-rule:nonzero;stroke:none"
         d="m 765.164,993.977 1.633,39.033 c 0.777,9.91 7.023,14.9 9.355,17.73 2.278,2.82 6.137,7.81 6.137,11.37 l -1.926,12.06 H 656.789 l -1.934,-12.06 c 0,-3.56 3.868,-8.55 6.188,-11.37 2.32,-2.83 8.469,-7.82 9.277,-17.73 l 1.602,-39.033 h 93.242 v 0" /><path
         id="path26"
         style="fill:#192c66;fill-opacity:1;fill-rule:nonzero;stroke:none"
         d="m 831.645,726.965 h -43.86 v -43.883 h 43.86 v 43.883" /><path
         id="path28"
         style="fill:#192c66;fill-opacity:1;fill-rule:nonzero;stroke:none"
         d="m 785.469,773.129 h -44.02 V 729.27 h 44.02 v 43.859" /><path
         id="path30"
         style="fill:#192c66;fill-opacity:1;fill-rule:nonzero;stroke:none"
         d="M 877.813,680.801 H 833.926 V 636.93 h 43.887 v 43.871" /><path
         id="path32"
         style="fill:#192c66;fill-opacity:1;fill-rule:nonzero;stroke:none"
         d="M 877.813,773.129 H 833.926 V 729.27 h 43.887 v 43.859" /><path
         id="path34"
         style="fill:#192c66;fill-opacity:1;fill-rule:nonzero;stroke:none"
         d="m 785.469,680.801 h -44.02 V 636.93 h 44.02 v 43.871" /><path
         id="path36"
         style="fill:#192c66;fill-opacity:1;fill-rule:nonzero;stroke:none"
         d="M 970.125,773.129 H 926.238 V 729.27 h 43.887 v 43.859" /><path
         id="path38"
         style="fill:#192c66;fill-opacity:1;fill-rule:nonzero;stroke:none"
         d="m 923.965,726.965 h -43.863 v -43.883 h 43.863 v 43.883" /><path
         id="path40"
         style="fill:#192c66;fill-opacity:1;fill-rule:nonzero;stroke:none"
         d="M 970.125,680.801 H 926.238 V 636.93 h 43.887 v 43.871" /><path
         id="path42"
         style="fill:#192c66;fill-opacity:1;fill-rule:nonzero;stroke:none"
         d="m 554.512,726.965 h -43.875 v -43.883 h 43.875 v 43.883" /><path
         id="path44"
         style="fill:#192c66;fill-opacity:1;fill-rule:nonzero;stroke:none"
         d="m 739.152,726.965 h -43.871 v -43.883 h 43.871 v 43.883" /><path
         id="path46"
         style="fill:#192c66;fill-opacity:1;fill-rule:nonzero;stroke:none"
         d="M 508.359,680.801 H 464.484 V 636.93 h 43.875 v 43.871" /><path
         id="path48"
         style="fill:#192c66;fill-opacity:1;fill-rule:nonzero;stroke:none"
         d="M 600.672,680.801 H 556.816 V 636.93 h 43.856 v 43.871" /><path
         id="path50"
         style="fill:#192c66;fill-opacity:1;fill-rule:nonzero;stroke:none"
         d="M 508.359,773.129 H 464.484 V 729.27 h 43.875 v 43.859" /><path
         id="path52"
         style="fill:#192c66;fill-opacity:1;fill-rule:nonzero;stroke:none"
         d="M 692.992,773.129 H 649.145 V 729.27 h 43.847 v 43.859" /><path
         id="path54"
         style="fill:#192c66;fill-opacity:1;fill-rule:nonzero;stroke:none"
         d="M 600.672,773.129 H 556.816 V 729.27 h 43.856 v 43.859" /><path
         id="path56"
         style="fill:#192c66;fill-opacity:1;fill-rule:nonzero;stroke:none"
         d="M 692.992,680.801 H 649.145 V 636.93 h 43.847 v 43.871" /><path
         id="path58"
         style="fill:#192c66;fill-opacity:1;fill-rule:nonzero;stroke:none"
         d="m 646.84,726.965 h -43.887 v -43.883 h 43.887 v 43.883" /><path
         id="path60"
         style="fill:#192c66;fill-opacity:1;fill-rule:nonzero;stroke:none"
         d="m 1006.89,792.289 c 0,-23.004 -1.64,-44.652 -4.41,-65.324 h -30.074 v -43.883 h 22.035 C 942.563,465.254 743.969,390.789 717.766,381.828 l -0.555,-0.207 -1.18,0.418 c -25.629,8.75 -224.16,83.215 -276.035,301.043 h 23.774 v 43.883 h -31.805 c -2.777,20.672 -4.422,42.32 -4.422,65.324 v 182.789 h 579.347 z m -11.613,-105.98 c 0.223,1.089 0.434,1.832 0.473,1.988 -0.145,-0.684 -0.328,-1.324 -0.473,-1.988 z m -556.695,2.496 c 0.109,-0.481 0.195,-0.907 0.277,-1.223 -0.089,0.398 -0.183,0.82 -0.277,1.223 z m 437.227,306.39 -1.618,38.135 c -0.793,10.43 -7.289,15.63 -9.711,18.66 -2.425,2.94 -6.468,8.19 -6.468,11.9 l -2.422,23.84 c 0,0 6.465,8.93 11.312,12.65 4.879,3.72 6.496,17.14 4.879,23.83 v 14.91 h -98.027 v 29.04 H 663.43 v -29.04 h -98.028 v -14.91 c -1.621,-6.69 0,-20.11 4.852,-23.83 4.848,-3.72 11.355,-12.65 11.355,-12.65 l -2.441,-23.84 c 0,-3.71 -4.066,-8.96 -6.465,-11.9 -2.449,-3.03 -8.922,-8.23 -9.742,-18.66 l -1.574,-38.135 H 407.43 V 792.289 c 0,-317.019 271.195,-418.73 302.218,-429.328 l 7.618,-2.813 7.629,2.864 c 30.918,10.547 302.115,112.203 302.115,429.277 V 995.195 H 875.809" /><path
         id="path62"
         style="fill:#ffffff;fill-opacity:1;fill-rule:nonzero;stroke:none"
         d="m 595.258,1063.29 h 50.972 l 2.329,16.46 h -52.055 l -1.246,-16.46" /><path
         id="path64"
         style="fill:#ffffff;fill-opacity:1;fill-rule:nonzero;stroke:none"
         d="m 743.445,1108.96 h -49.859 l -1.785,-26.99 h 53.445 l -1.801,26.99" /><path
         id="path66"
         style="fill:#ffffff;fill-opacity:1;fill-rule:nonzero;stroke:none"
         d="m 765.207,994.094 1.59,38.916 c 0.777,9.91 7.023,14.9 9.355,17.73 2.278,2.82 6.137,7.81 6.137,11.37 l -1.926,12.06 h -9.5 v -9.97 h -14.136 v 9.97 h -13.516 v -9.97 h -15.055 v 9.97 h -19.277 v -9.97 h -15.055 v 9.97 h -13.488 v -9.97 h -14.074 v 9.97 h -9.473 l -1.934,-12.06 c 0,-3.56 3.868,-8.55 6.188,-11.37 2.32,-2.83 8.469,-7.82 9.277,-17.73 l 1.578,-38.916 h 25.848 v 32.296 c 0,11.5 9.289,20.79 20.762,20.79 11.476,0 20.777,-9.29 20.777,-20.79 v -32.296 h 25.922" /><path
         id="path68"
         style="fill:#ffffff;fill-opacity:1;fill-rule:nonzero;stroke:none"
         d="m 844.551,1053.7 h -55.403 c -1.128,-1.76 -2.421,-3.42 -3.418,-4.64 -2.164,-2.65 -7.91,-7.26 -8.621,-16.52 l -0.136,-3.31 h 79.73 l -0.133,3.31 c -0.718,9.26 -6.453,13.87 -8.629,16.52 -0.996,1.22 -2.281,2.88 -3.39,4.64" /><path
         id="path70"
         style="fill:#ffffff;fill-opacity:1;fill-rule:nonzero;stroke:none"
         d="m 790.766,1064.65 h 51.07 l -1.152,15.1 h -52.079 l 2.161,-15.1" /><path
         id="path72"
         style="fill:#ffffff;fill-opacity:1;fill-rule:nonzero;stroke:none"
         d="m 660.633,1018.26 h -80.59 l -0.938,-24.166 h 82.43 l -0.902,24.166" /><path
         id="path74"
         style="fill:#ffffff;fill-opacity:1;fill-rule:nonzero;stroke:none"
         d="m 773.074,1126.33 v -6.12 c -1.429,-5.93 0,-17.82 4.309,-21.12 2.648,-2.02 5.805,-5.77 7.875,-8.39 h 56.984 c 2.067,2.62 5.238,6.37 7.875,8.39 4.321,3.3 5.735,15.19 4.321,21.12 v 6.12 h -14.243 v -8.56 h -19.324 v 8.56 h -15.027 v -8.56 h -19.293 v 8.56 h -13.477" /><path
         id="path76"
         style="fill:#ffffff;fill-opacity:1;fill-rule:nonzero;stroke:none"
         d="m 776.563,1018.26 -0.93,-24.166 h 82.433 l -0.937,24.166 h -80.566" /><path
         id="path78"
         style="fill:#ffffff;fill-opacity:1;fill-rule:nonzero;stroke:none"
         d="m 660.207,1029.23 -0.117,3.31 c -0.742,9.26 -6.477,13.87 -8.641,16.52 -0.726,0.89 -1.601,2.04 -2.461,3.25 h -57.3 c -0.875,-1.21 -1.747,-2.36 -2.477,-3.25 -2.133,-2.65 -7.887,-7.26 -8.621,-16.52 l -0.137,-3.31 h 79.754" /><path
         id="path80"
         style="fill:#ffffff;fill-opacity:1;fill-rule:nonzero;stroke:none"
         d="m 594.926,1090.7 h 56.976 c 2.067,2.62 5.246,6.37 7.868,8.39 4.32,3.3 5.75,15.19 4.32,21.12 v 6.12 h -13.477 v -8.56 h -19.277 v 8.56 h -15.039 v -8.56 h -19.305 v 8.56 h -14.258 v -6.12 c -1.41,-5.93 0,-17.82 4.344,-21.12 2.621,-2.02 5.789,-5.77 7.848,-8.39" /><path
         id="path82"
         style="fill:#ffffff;fill-opacity:1;fill-rule:nonzero;stroke:none"
         d="m 676.113,1152.09 v -5.27 c -1.445,-5.94 6.555,-17.84 10.848,-21.12 1.848,-1.4 3.363,-3.65 4.516,-5.76 h 54.062 c 1.168,2.11 2.676,4.36 4.508,5.76 4.32,3.28 12.308,15.18 10.879,21.12 v 5.27 h -17.332 v -9.83 h -16.219 v 9.83 H 709.66 v -9.82 h -16.219 v 9.82 h -17.328" /><path
         id="path84"
         style="fill:#192c66;fill-opacity:1;fill-rule:nonzero;stroke:none"
         d="m 718.129,576.395 c -25.602,0 -46.43,-20.829 -46.43,-46.422 0,-25.61 20.828,-46.383 46.43,-46.383 25.601,0 46.414,20.773 46.414,46.383 0,25.593 -20.813,46.422 -46.414,46.422" /><path
         id="path86"
         style="fill:#192c66;fill-opacity:1;fill-rule:nonzero;stroke:none"
         d="m 560.273,917.559 c -25.597,0 -46.433,-20.829 -46.433,-46.403 0,-25.597 20.836,-46.429 46.433,-46.429 25.598,0 46.43,20.832 46.43,46.429 0,25.574 -20.832,46.403 -46.43,46.403" /><path
         id="path88"
         style="fill:#192c66;fill-opacity:1;fill-rule:nonzero;stroke:none"
         d="m 875.461,917.559 c -25.598,0 -46.43,-20.829 -46.43,-46.403 0,-25.597 20.832,-46.429 46.43,-46.429 25.602,0 46.418,20.832 46.418,46.429 0,25.574 -20.816,46.403 -46.418,46.403" /><path
         id="path90"
         style="fill:#a69349;fill-opacity:1;fill-rule:nonzero;stroke:none"
         d="m 189.246,582.336 c 1.402,18.812 -5.422,49.129 -44.336,63.332 -0.887,-9.059 15,-55.758 44.336,-63.332" /><path
         id="path92"
         style="fill:#a69349;fill-opacity:1;fill-rule:nonzero;stroke:none"
         d="m 132.68,643.867 c -12.895,-11.816 -29.114,-47.058 -9.34,-76.687 13.594,12.98 28.762,40.121 9.34,76.687" /><path
         id="path94"
         style="fill:#a69349;fill-opacity:1;fill-rule:nonzero;stroke:none"
         d="m 121.816,709.605 c -14.367,-10.07 -35.1129,-42.835 -19.492,-74.855 15.207,11.078 33.852,35.938 19.492,74.855" /><path
         id="path96"
         style="fill:#a69349;fill-opacity:1;fill-rule:nonzero;stroke:none"
         d="m 108.262,742.227 c -0.188,-10.411 8.133,-19.024 18.574,-19.215 10.437,-0.184 19.027,8.136 19.211,18.551 0.187,10.445 -8.117,19.027 -18.551,19.242 -10.453,0.164 -19.055,-8.11 -19.234,-18.578" /><path
         id="path98"
         style="fill:#a69349;fill-opacity:1;fill-rule:nonzero;stroke:none"
         d="m 176.313,647.152 c 1.546,18.821 -5.075,49.153 -43.903,63.7 -0.926,-9.141 14.621,-55.907 43.903,-63.7" /><path
         id="path100"
         style="fill:#a69349;fill-opacity:1;fill-rule:nonzero;stroke:none"
         d="m 178.723,513.113 c 6.968,17.492 9.519,48.496 -23.36,73.727 -6.785,-16.164 -6.925,-54.91 23.36,-73.727" /><path
         id="path102"
         style="fill:#a69349;fill-opacity:1;fill-rule:nonzero;stroke:none"
         d="m 195.938,898.609 c 0.421,-18.812 -7.977,-48.738 -47.598,-60.898 -0.399,9.113 17.902,54.91 47.598,60.898" /><path
         id="path104"
         style="fill:#a69349;fill-opacity:1;fill-rule:nonzero;stroke:none"
         d="m 136.23,840.145 c -12.257,12.511 -26.609,48.527 -5.328,77.121 12.911,-13.727 26.649,-41.606 5.328,-77.121" /><path
         id="path106"
         style="fill:#a69349;fill-opacity:1;fill-rule:nonzero;stroke:none"
         d="m 123.086,774.797 c -13.82,10.762 -32.8243,44.574 -15.543,75.738 14.598,-11.867 31.934,-37.683 15.543,-75.738" /><path
         id="path108"
         style="fill:#a69349;fill-opacity:1;fill-rule:nonzero;stroke:none"
         d="m 180.781,834.238 c 0.571,-18.812 -7.633,-48.789 -47.176,-61.269 -0.433,9.195 17.532,55.097 47.176,61.269" /><path
         id="path110"
         style="fill:#a69349;fill-opacity:1;fill-rule:nonzero;stroke:none"
         d="m 188.094,968.613 c 6.054,-17.808 6.98,-48.883 -27.18,-72.386 -5.934,16.484 -4.043,55.199 27.18,72.386" /><path
         id="path112"
         style="fill:#a69349;fill-opacity:1;fill-rule:nonzero;stroke:none"
         d="m 1251.55,582.336 c -1.41,18.812 5.42,49.129 44.36,63.332 0.87,-9.059 -15,-55.758 -44.36,-63.332" /><path
         id="path114"
         style="fill:#a69349;fill-opacity:1;fill-rule:nonzero;stroke:none"
         d="m 1308.12,643.867 c 12.9,-11.816 29.11,-47.058 9.36,-76.687 -13.59,12.98 -28.79,40.121 -9.36,76.687" /><path
         id="path116"
         style="fill:#a69349;fill-opacity:1;fill-rule:nonzero;stroke:none"
         d="m 1319,709.605 c 14.35,-10.07 35.11,-42.835 19.47,-74.855 -15.21,11.078 -33.85,35.938 -19.47,74.855" /><path
         id="path118"
         style="fill:#a69349;fill-opacity:1;fill-rule:nonzero;stroke:none"
         d="m 1332.56,742.227 c 0.16,-10.411 -8.14,-19.024 -18.6,-19.215 -10.43,-0.184 -19.02,8.136 -19.21,18.551 -0.18,10.445 8.12,19.027 18.56,19.242 10.45,0.164 19.06,-8.11 19.25,-18.578" /><path
         id="path120"
         style="fill:#a69349;fill-opacity:1;fill-rule:nonzero;stroke:none"
         d="m 1264.48,647.152 c -1.54,18.821 5.08,49.153 43.92,63.7 0.92,-9.141 -14.63,-55.907 -43.92,-63.7" /><path
         id="path122"
         style="fill:#a69349;fill-opacity:1;fill-rule:nonzero;stroke:none"
         d="m 1262.09,513.113 c -6.98,17.492 -9.53,48.496 23.36,73.727 6.78,-16.164 6.91,-54.91 -23.36,-73.727" /><path
         id="path124"
         style="fill:#a69349;fill-opacity:1;fill-rule:nonzero;stroke:none"
         d="m 1244.86,898.609 c -0.42,-18.812 7.98,-48.738 47.6,-60.898 0.41,9.113 -17.9,54.91 -47.6,60.898" /><path
         id="path126"
         style="fill:#a69349;fill-opacity:1;fill-rule:nonzero;stroke:none"
         d="m 1304.57,840.145 c 12.26,12.511 26.6,48.527 5.33,77.121 -12.91,-13.727 -26.65,-41.606 -5.33,-77.121" /><path
         id="path128"
         style="fill:#a69349;fill-opacity:1;fill-rule:nonzero;stroke:none"
         d="m 1317.71,774.797 c 13.82,10.762 32.84,44.574 15.55,75.738 -14.61,-11.867 -31.92,-37.683 -15.55,-75.738" /><path
         id="path130"
         style="fill:#a69349;fill-opacity:1;fill-rule:nonzero;stroke:none"
         d="m 1260.02,834.238 c -0.57,-18.812 7.64,-48.789 47.18,-61.269 0.44,9.195 -17.52,55.097 -47.18,61.269" /><path
         id="path132"
         style="fill:#a69349;fill-opacity:1;fill-rule:nonzero;stroke:none"
         d="m 1252.7,968.613 c -6.03,-17.808 -6.96,-48.883 27.18,-72.386 5.95,16.484 4.04,55.199 -27.18,72.386" /><path
         id="path134"
         style="fill:#ffffff;fill-opacity:1;fill-rule:nonzero;stroke:none"
         d="m 444.621,543.109 c -20.351,36.735 -62.699,113.586 -67.785,145.188 -9.316,-17.926 -14.391,-39.289 -17.801,-51.211 -15.222,11.922 -38.121,32.434 -46.586,41.012 5.922,-26.543 13.461,-79.387 32.067,-108.43 17.793,11.129 23.797,16.215 32.25,22.207 8.453,5.938 16.593,8.691 28.461,-6.68 11.847,-15.371 26.675,-32.644 39.394,-42.086 v 0" /><path
         id="path136"
         style="fill:#ffffff;fill-opacity:1;fill-rule:nonzero;stroke:none"
         d="m 997.012,546.504 c 20.358,36.781 57.608,115.332 62.688,146.934 9.33,-17.915 14.43,-44.43 17.82,-56.352 15.21,11.922 38.09,32.434 46.58,41.012 -5.93,-26.543 -13.44,-79.387 -32.1,-108.43 -17.78,11.129 -23.74,16.215 -32.2,22.207 -8.48,5.938 -14.52,4.184 -26.36,-11.187 -11.84,-15.368 -23.7,-24.75 -36.428,-34.184 v 0" /><path
         id="path138"
         style="fill:#ffffff;fill-opacity:1;fill-rule:nonzero;stroke:none"
         d="m 619.965,369.738 c -0.953,7.422 8.922,12.774 23.031,16.492 -141.383,23.211 -190.289,112.204 -250.914,185.079 -11.613,13.996 -13.605,5.039 -14.402,4.293 -5.09,-5.137 -47.317,-33.391 -53.239,-36.786 -11.062,-6.41 -3.488,-8.953 5.801,-25.546 48.395,-86.758 155.668,-179.52 296.27,-208.879 -1.074,21.039 -4.571,50.14 -6.547,65.347" /><path
         id="path140"
         style="fill:#ffffff;fill-opacity:1;fill-rule:nonzero;stroke:none"
         d="m 1110.81,538.816 c -5.93,3.395 -44.33,29.95 -49.42,35.09 -0.79,0.742 -4.21,10.762 -14.4,-4.293 C 980.277,470.816 913.199,404.832 793.711,386.02 c 14.043,-3.661 23.82,-8.911 22.867,-16.282 -1.961,-15.207 -5.457,-44.308 -6.547,-65.347 140.617,29.418 247.859,122.121 296.259,208.879 9.28,16.593 15.55,19.136 4.52,25.546" /><path
         id="path142"
         style="fill:#ffffff;fill-opacity:1;fill-rule:nonzero;stroke:none"
         d="m 718.246,359.09 c 0,0 61.957,1.738 72.93,3.39 15.094,2.391 13.105,1.801 11.023,-18.339 -1.679,-16.219 -3.386,-41.02 -3.386,-52.102 0,-11.078 -5.954,-12.828 -14.418,-13.668 -8.407,-0.801 -43.278,-4.242 -66.149,-4.242 -22.871,0 -57.59,3.441 -66.078,4.242 -8.484,0.84 -14.422,2.59 -14.422,13.668 0,11.082 -1.68,35.883 -3.387,52.102 -2.093,20.14 -4.097,20.73 11.036,18.339 11.023,-1.652 72.851,-3.39 72.851,-3.39 v 0" /><path
         id="path144"
         style="fill:#192c66;fill-opacity:1;fill-rule:nonzero;stroke:none"
         d="m 396.652,527.582 5.551,-8.961 -49.594,-11.707 -5.035,8.16 32.239,39.649 5.699,-9.172 -25.469,-28.516 36.609,10.547 v 0" /><path
         id="path146"
         style="fill:#192c66;fill-opacity:1;fill-rule:nonzero;stroke:none"
         d="m 422.563,481.367 -16.711,19.395 -7.731,-6.782 15.348,-17.812 -6.293,-5.508 -15.371,17.809 -9.34,-8.219 17.488,-20.301 -6.543,-5.719 -23.961,27.774 36.375,31.848 23.203,-26.872 -6.464,-5.613 v 0" /><path
         id="path148"
         style="fill:#192c66;fill-opacity:1;fill-rule:evenodd;stroke:none"
         d="m 459.09,453.965 c 0.746,-1.86 1.066,-3.766 0.902,-5.672 -0.105,-1.645 -0.488,-3.234 -1.097,-4.719 -0.625,-1.484 -1.606,-2.914 -2.954,-4.246 -1.621,-1.637 -3.617,-2.808 -6.007,-3.598 -2.371,-0.742 -4.832,-0.48 -7.336,0.739 0.941,-2.168 1.121,-4.239 0.609,-6.09 -0.465,-1.809 -1.934,-3.918 -4.32,-6.359 l -2.282,-2.282 c -1.562,-1.59 -2.542,-2.707 -2.984,-3.398 -0.687,-1.051 -0.914,-2.11 -0.644,-3.231 l -0.875,-0.898 -7.832,7.949 c 0.558,0.961 1.007,1.699 1.363,2.281 0.773,1.168 1.656,2.231 2.652,3.231 l 3.125,3.238 c 2.133,2.219 3.184,4.129 3.129,5.61 -0.016,1.492 -1.09,3.289 -3.184,5.41 l -7.351,7.422 -13.356,-13.461 -6.968,6.996 34.054,34.343 16.723,-16.855 c 2.367,-2.437 3.883,-4.559 4.633,-6.41 z m -20.281,10.277 -9.188,-9.219 8.098,-8.109 c 1.578,-1.644 2.98,-2.652 4.16,-3.074 2.055,-0.797 4.059,-0.211 5.937,1.691 2.071,2.125 2.782,4.192 2.118,6.317 -0.371,1.105 -1.321,2.539 -2.871,4.074 l -8.254,8.32 v 0" /><path
         id="path150"
         style="fill:#192c66;fill-opacity:1;fill-rule:nonzero;stroke:none"
         d="m 453.809,398.262 -8.098,5.929 28.34,39.329 8.07,-5.989 -28.312,-39.269 v 0" /><path
         id="path152"
         style="fill:#192c66;fill-opacity:1;fill-rule:nonzero;stroke:none"
         d="m 522.492,410.082 -4.531,-7.273 -12.211,7.75 -21.02,-33.93 -8.597,5.41 21.015,33.922 -12.273,7.738 4.523,7.262 33.094,-20.879 v 0" /><path
         id="path154"
         style="fill:#192c66;fill-opacity:1;fill-rule:evenodd;stroke:none"
         d="m 538.359,401.441 10.121,-5.203 -6.652,-51.09 -9.726,4.981 1.734,10.34 -15.836,8.101 -7.445,-7.308 -9.395,4.777 37.199,35.402 z m -14.179,-26.609 10.902,-5.621 3.262,19.769 -14.164,-14.148 v 0" /><path
         id="path156"
         style="fill:#192c66;fill-opacity:1;fill-rule:nonzero;stroke:none"
         d="m 565.492,351.559 c -0.394,-2.219 -0.328,-3.969 0.199,-5.297 0.926,-2.442 3.286,-4.242 7.051,-5.453 2.281,-0.797 4.176,-1.118 5.75,-1.071 2.981,0.051 4.906,1.434 5.727,4.032 0.484,1.539 0.215,2.921 -0.852,4.191 -1.058,1.269 -2.887,2.648 -5.523,4.238 l -4.52,2.653 c -4.41,2.648 -7.324,4.929 -8.761,6.777 -2.368,3.18 -2.844,7 -1.372,11.5 1.309,4.141 3.907,7.101 7.762,8.851 3.871,1.809 8.719,1.7 14.5,-0.21 4.82,-1.54 8.516,-4.18 11.09,-7.891 2.582,-3.707 3.176,-8.008 1.762,-12.988 l -9.215,3.019 c 0.734,2.809 0.16,5.199 -1.695,7.102 -1.243,1.277 -2.961,2.277 -5.165,2.968 -2.48,0.801 -4.64,0.961 -6.425,0.481 -1.778,-0.531 -2.969,-1.699 -3.555,-3.5 -0.543,-1.691 -0.211,-3.121 0.996,-4.449 0.742,-0.852 2.527,-2.121 5.336,-3.871 l 7.289,-4.45 c 3.184,-2.011 5.449,-3.98 6.758,-5.941 2.012,-3.07 2.398,-6.68 1.062,-10.762 -1.339,-4.238 -4.109,-7.207 -8.23,-8.957 -4.055,-1.742 -9.035,-1.64 -14.883,0.27 -5.969,1.91 -10.223,4.879 -12.758,8.687 -2.554,3.934 -3.015,8.223 -1.468,13.043 l 9.14,-2.972 v 0" /><path
         id="path158"
         style="fill:#192c66;fill-opacity:1;fill-rule:nonzero;stroke:none"
         d="m 869.035,388.031 9.766,3.821 1.926,-51.313 -8.891,-3.449 -32.469,39.488 10.059,3.871 22.855,-30.64 -3.246,38.222 v 0" /><path
         id="path160"
         style="fill:#192c66;fill-opacity:1;fill-rule:nonzero;stroke:none"
         d="m 921.43,359.359 -8.996,-4.398 -21.137,43.668 9,4.402 21.133,-43.672 v 0" /><path
         id="path162"
         style="fill:#192c66;fill-opacity:1;fill-rule:evenodd;stroke:none"
         d="m 943.281,427.09 c 1.946,0.32 3.871,0.16 5.707,-0.418 1.551,-0.481 2.985,-1.172 4.258,-2.121 1.324,-0.961 2.477,-2.231 3.473,-3.821 1.215,-1.96 1.894,-4.242 2.094,-6.73 0.21,-2.488 -0.586,-4.879 -2.375,-7.051 2.359,0.422 4.371,0.16 6.027,-0.738 1.66,-0.961 3.394,-2.813 5.211,-5.731 l 1.652,-2.761 c 1.223,-1.848 2.067,-3.117 2.652,-3.649 0.848,-0.949 1.872,-1.379 2.985,-1.379 l 0.644,-1.062 -9.418,-5.879 c -0.785,0.738 -1.461,1.32 -1.894,1.852 -0.945,1.007 -1.789,2.117 -2.559,3.289 l -2.422,3.82 c -1.687,2.59 -3.25,4.027 -4.695,4.34 -1.469,0.32 -3.469,-0.371 -5.937,-1.91 l -8.852,-5.563 10.02,-16.156 -8.321,-5.25 -25.547,41.18 20.004,12.668 c 2.922,1.691 5.36,2.75 7.293,3.07 z m -14.523,-17.649 6.867,-11.019 9.668,6.09 c 1.937,1.168 3.234,2.34 3.887,3.398 1.242,1.852 1.148,3.918 -0.309,6.192 -1.539,2.546 -3.418,3.718 -5.562,3.5 -1.219,-0.102 -2.797,-0.743 -4.614,-1.852 l -9.937,-6.309 v 0" /><path
         id="path164"
         style="fill:#192c66;fill-opacity:1;fill-rule:nonzero;stroke:none"
         d="m 986.641,465.199 5.597,-6.515 -10.863,-9.543 25.995,-30.161 -7.632,-6.679 -26.019,30.16 -10.934,-9.59 -5.617,6.52 29.473,25.808 v 0" /><path
         id="path166"
         style="fill:#192c66;fill-opacity:1;fill-rule:nonzero;stroke:none"
         d="m 997.012,475.852 7.108,7.418 21.29,-20.719 c 2.4,-2.332 4.38,-3.711 6.02,-4.246 2.82,-1.004 5.61,0 8.49,2.968 2.83,2.915 3.67,5.836 2.61,8.59 -0.6,1.645 -2.04,3.606 -4.43,5.938 l -21.3,20.722 7.09,7.422 21.32,-20.726 c 3.7,-3.606 6.03,-6.992 6.95,-10.121 1.7,-5.778 -0.32,-11.715 -6.15,-17.809 -5.77,-6.043 -11.59,-8.32 -17.45,-6.789 -3.15,0.797 -6.56,3.023 -10.26,6.633 l -21.288,20.719 v 0" /><path
         id="path168"
         style="fill:#192c66;fill-opacity:1;fill-rule:nonzero;stroke:none"
         d="m 1063.71,503.73 c 1.98,-1.058 3.67,-1.484 5.04,-1.375 2.59,0.208 4.99,1.907 7.27,5.196 1.38,1.961 2.25,3.711 2.69,5.246 0.77,2.918 0.07,5.137 -2.14,6.73 -1.3,0.899 -2.75,1.059 -4.24,0.371 -1.5,-0.64 -3.4,-2.011 -5.62,-4.082 l -3.86,-3.55 c -3.79,-3.5 -6.81,-5.672 -8.99,-6.469 -3.7,-1.434 -7.47,-0.738 -11.33,2.016 -3.55,2.492 -5.57,5.882 -6.11,10.074 -0.56,4.293 0.9,8.898 4.39,13.933 2.92,4.192 6.53,6.996 10.79,8.375 4.24,1.438 8.53,0.688 12.84,-2.121 l -5.55,-8 c -2.49,1.535 -4.89,1.699 -7.25,0.477 -1.53,-0.848 -2.99,-2.227 -4.34,-4.133 -1.49,-2.176 -2.24,-4.191 -2.28,-6.043 -0.02,-1.906 0.73,-3.395 2.26,-4.453 1.41,-1.004 2.91,-1.113 4.47,-0.317 1.02,0.426 2.79,1.801 5.22,4.028 l 6.41,5.672 c 2.81,2.488 5.31,4.082 7.58,4.769 3.53,1.059 7.04,0.371 10.56,-2.121 3.57,-2.543 5.64,-6.043 6.09,-10.547 0.42,-4.453 -1.11,-9.222 -4.63,-14.258 -3.61,-5.195 -7.58,-8.425 -12.02,-9.753 -4.41,-1.325 -8.65,-0.528 -12.74,2.386 l 5.49,7.949 v 0" /><path
         id="path170"
         style="fill:#192c66;fill-opacity:1;fill-rule:nonzero;stroke:none"
         d="m 643.832,329.879 0.566,6.371 c 2.969,-0.109 5.051,-0.109 6.215,0.051 1.934,0.258 3.539,0.949 4.817,2.121 0.883,0.789 1.586,1.848 2.117,3.277 0.328,0.852 0.473,1.43 0.543,1.86 l 7.738,-0.688 -4.148,-47.812 -9.567,0.851 2.891,32.969 -11.172,1 v 0" /><path
         id="path172"
         style="fill:#192c66;fill-opacity:1;fill-rule:nonzero;stroke:none"
         d="m 711.465,331.641 c -1.5,-1.332 -3.582,-3.719 -6.219,-7.11 -2.676,-3.449 -4.98,-7 -6.863,-10.711 -1.457,-2.91 -2.875,-6.461 -4.145,-10.699 -1.316,-4.242 -2.035,-7.742 -2.16,-10.492 l -9.711,0.519 c 0.727,8.543 4,17.34 9.805,26.352 3.707,5.559 6.781,9.43 9.219,11.551 l -23.692,1.269 0.571,8.43 33.578,-1.75 -0.383,-7.359 v 0" /><path
         id="path174"
         style="fill:#192c66;fill-opacity:1;fill-rule:evenodd;stroke:none"
         d="m 729.535,322.621 c 1.125,-1.062 2.621,-1.539 4.516,-1.43 1.887,0.11 3.344,0.739 4.308,1.911 0.985,1.109 1.45,2.597 1.368,4.347 -0.11,1.852 -0.715,3.34 -1.805,4.289 -1.082,1.063 -2.582,1.543 -4.477,1.434 -1.882,-0.102 -3.34,-0.742 -4.336,-1.852 -1.004,-1.121 -1.453,-2.648 -1.363,-4.558 0.094,-1.703 0.715,-3.133 1.789,-4.141 z m -9.793,-10.172 c 1.086,2.223 2.77,3.973 5.09,5.192 -2.398,1.429 -3.973,3.019 -4.769,4.718 -0.766,1.801 -1.208,3.442 -1.278,5.032 -0.168,3.449 0.957,6.531 3.449,9.07 2.454,2.59 6.079,4.019 10.797,4.289 4.746,0.27 8.473,-0.789 11.199,-3.129 2.731,-2.281 4.2,-5.191 4.387,-8.641 0.106,-1.589 -0.187,-3.281 -0.797,-5.14 -0.566,-1.801 -1.988,-3.442 -4.199,-4.879 2.41,-1.211 4.238,-2.859 5.535,-4.981 1.301,-2.109 2.004,-4.5 2.137,-7.199 0.238,-4.031 -1.074,-7.582 -3.906,-10.551 -2.797,-2.968 -6.867,-4.609 -12.168,-4.878 -5.297,-0.313 -9.406,0.898 -12.266,3.546 -2.89,2.711 -4.43,6.102 -4.652,10.122 -0.133,2.71 0.332,5.152 1.441,7.429 z m 10.309,-11.66 c 1.301,-1.219 3.008,-1.809 5.144,-1.699 2.157,0.109 3.774,0.851 4.942,2.23 1.125,1.379 1.644,3.231 1.535,5.559 -0.129,2.441 -0.859,4.301 -2.156,5.461 -1.301,1.219 -2.985,1.75 -5.078,1.64 -2.106,-0.101 -3.75,-0.851 -4.926,-2.171 -1.141,-1.321 -1.672,-3.18 -1.524,-5.618 0.117,-2.382 0.793,-4.179 2.063,-5.402 v 0" /><path
         id="path176"
         style="fill:#192c66;fill-opacity:1;fill-rule:evenodd;stroke:none"
         d="m 791.176,336.621 c -1.27,-1.492 -2.969,-4.141 -5.184,-7.949 -2.156,-3.774 -3.918,-7.59 -5.258,-11.512 -1.074,-3.07 -1.933,-6.832 -2.621,-11.23 -0.679,-4.352 -0.941,-7.899 -0.679,-10.66 l -9.711,-0.84 c -0.489,8.582 1.562,17.75 6.086,27.449 2.898,6.043 5.429,10.281 7.523,12.769 l -23.746,-2.058 -0.606,8.43 33.59,2.96 0.606,-7.359 v 0" /><path
         id="path178"
         style="fill:#192c66;fill-opacity:1;fill-rule:nonzero;stroke:none"
         d="m 1318.96,709.578 c 14.4,-10.07 35.15,-42.808 19.49,-74.883 -15.22,11.133 -33.84,36.047 -19.49,74.883 z m -1.48,-142.398 c -13.61,12.98 -28.79,40.121 -9.39,76.687 12.93,-11.816 29.12,-47.058 9.39,-76.687 z M 132.703,643.867 c 19.399,-36.566 4.254,-63.707 -9.355,-76.687 -19.77,29.629 -3.535,64.871 9.355,76.687 z m -30.379,-9.172 c -15.5974,32.075 5.141,64.813 19.5,74.883 14.367,-38.836 -4.293,-63.75 -19.5,-74.883 z m 5.219,215.84 c 14.629,-11.922 31.961,-37.683 15.555,-75.738 -13.809,10.762 -32.8441,44.574 -15.555,75.738 z m 23.371,66.731 c 12.906,-13.727 26.66,-41.629 5.305,-77.145 -12.215,12.481 -26.559,48.551 -5.305,77.145 z m 45.41,-270.114 c -29.269,7.743 -44.84,54.528 -43.898,63.7 38.828,-14.547 45.449,-44.934 43.898,-63.7 z m -42.687,125.793 c -0.465,9.168 17.5,55.121 47.168,61.27 0.554,-18.82 -7.649,-48.766 -47.168,-61.27 z m 12.449,-31.382 c -0.207,-10.442 -8.781,-18.735 -19.227,-18.575 -10.441,0.215 -18.773,8.797 -18.574,19.239 0.184,10.445 8.77,18.742 19.227,18.578 10.441,-0.215 18.761,-8.797 18.574,-19.242 z m 32.652,-228.45 c -30.293,18.817 -30.16,57.563 -23.363,73.727 32.875,-25.281 30.348,-56.289 23.363,-73.727 z M 144.91,645.668 c 38.926,-14.203 45.738,-44.57 44.36,-63.332 -29.336,7.574 -45.223,54.273 -44.36,63.332 z m 51.051,252.941 c 0.414,-18.867 -8,-48.738 -47.609,-60.898 -0.395,9.113 17.918,54.91 47.609,60.898 z m -7.883,69.981 c 6.094,-17.785 7.024,-48.883 -27.152,-72.34 -5.922,16.461 -4.055,55.152 27.152,72.34 z M 1205.76,719.965 c 0,-267.801 -217.905,-485.695 -485.737,-485.695 -267.863,0 -485.765,217.894 -485.765,485.695 0,267.863 217.902,485.795 485.765,485.795 267.832,0 485.737,-217.932 485.737,-485.795 z m 74.11,176.285 c -34.16,23.457 -33.23,54.555 -27.19,72.34 31.24,-17.188 33.11,-55.879 27.19,-72.34 z m -35.02,2.359 c 29.68,-5.988 48,-51.785 47.58,-60.898 -39.58,12.16 -48.01,42.031 -47.58,60.898 z m 65.03,18.657 c 21.27,-28.594 6.94,-64.664 -5.31,-77.145 -21.34,35.516 -7.58,63.418 5.31,77.145 z m -15.13,-175.703 c -0.2,10.445 8.1,19.027 18.54,19.242 10.44,0.164 19.04,-8.133 19.21,-18.578 0.2,-10.442 -8.08,-19.024 -18.52,-19.239 -10.45,-0.16 -19.03,8.133 -19.23,18.575 z m -34.74,92.652 c 29.67,-6.149 47.63,-52.102 47.17,-61.27 -39.53,12.504 -47.77,42.45 -47.17,61.27 z m 4.47,-187.063 c -1.56,18.766 5.07,49.153 43.92,63.7 0.9,-9.172 -14.65,-55.957 -43.92,-63.7 z m -2.39,-134.039 c -7,17.438 -9.54,48.446 23.35,73.727 6.78,-16.164 6.91,-54.91 -23.35,-73.727 z m -10.54,69.223 c -1.41,18.762 5.42,49.129 44.36,63.332 0.87,-9.059 -15.03,-55.758 -44.36,-63.332 z m 81.69,268.199 c 17.31,-31.164 -1.73,-64.976 -15.53,-75.738 -16.4,38.055 0.94,63.816 15.53,75.738 z M 720.023,1400.49 c -375.23,0 -680.5074,-305.26 -680.5074,-680.525 0,-375.235 305.2774,-680.4845 680.5074,-680.4845 375.207,0 680.487,305.2495 680.487,680.4845 0,375.265 -305.28,680.525 -680.487,680.525" /><path
         id="path180"
         style="fill:#ffffff;fill-opacity:1;fill-rule:nonzero;stroke:none"
         d="m 176.496,420.68 70.703,40.652 c 2.324,1.379 3.805,2.176 4.774,2.176 1.289,0 2.625,-1.965 5.3,-6.633 4.122,-7.152 5.18,-14.629 3.079,-21.566 -1.95,-6.418 -6.52,-11.981 -12.86,-15.637 -14.402,-8.274 -27.238,-6.363 -37.59,5.828 l -0.289,0.371 -0.449,0.109 c -2.258,0.481 -4.973,-1.539 -5.344,-3.98 l -0.05,-0.371 0.144,-0.367 c 0.676,-1.543 1.524,-3.024 2.41,-4.563 5.61,-9.75 20.024,-26.238 38.492,-26.238 5.793,0 11.571,1.648 17.133,4.828 10.653,6.152 16.645,17.012 16.434,29.941 -0.309,10.661 -5.223,24.383 -14.613,40.711 -9.665,16.75 -15.665,26.715 -23.653,37.735 l -0.32,0.316 c -2.137,1.438 -6.082,-0.578 -6.692,-3.23 L 233,500.344 236.02,493.5 c 2.703,-6.621 1.96,-7.523 -13.254,-16.27 l -59.211,-34.027 c -7.371,-4.242 -12.578,-6.894 -15.703,-6.894 -2.586,0 -4.082,1.812 -6.93,5.464 l -2.188,2.969 -0.425,0.106 c -1.602,0.472 -3.829,-0.27 -5.137,-1.7 -0.77,-0.847 -1.156,-1.8 -1.063,-2.753 l 0.2,-0.586 c 4.254,-6.68 8.875,-14.309 13.367,-22.098 4.176,-7.262 8.453,-15.051 14.297,-26.031 l 0.172,-0.309 0.308,-0.16 c 0.461,-0.32 1.031,-0.422 1.668,-0.422 1.934,0 4.559,1.481 5.195,3.492 l 0.157,0.481 -3.27,7.316 c -3.594,7.942 -4.137,9.172 12.293,18.602" /><path
         id="path182"
         style="fill:#ffffff;fill-opacity:1;fill-rule:nonzero;stroke:none"
         d="m 249.336,315.891 53.547,44.148 c 8.453,6.949 12.414,9.441 15.117,9.441 2.121,0 3.883,-1.589 6.828,-4.398 l 3.551,-3.344 0.898,-0.109 c 1.434,0 3.032,0.851 4.067,2.172 0.808,1.07 1.113,2.238 0.836,3.289 l -0.293,0.531 c -5.918,6.629 -11.766,13.41 -17.371,20.199 -5.805,7.051 -11.434,14.2 -16.762,21.25 l -0.488,0.371 c -2.387,1.118 -6.176,-1.531 -6.332,-4.242 l -0.032,-0.418 2.614,-4.14 c 4.742,-7.422 5.468,-8.532 -9.129,-20.559 l -53.563,-44.211 c -8.437,-6.941 -12.402,-9.43 -15.101,-9.43 -2.118,0 -3.887,1.59 -6.825,4.399 l -3.55,3.332 -0.903,0.109 c -1.449,0 -3.039,-0.84 -4.07,-2.172 -0.805,-1.058 -1.113,-2.23 -0.848,-3.289 l 0.309,-0.519 c 5.746,-6.422 11.844,-13.52 17.621,-20.52 5.645,-6.832 11.195,-13.883 16.508,-20.883 l 0.48,-0.429 c 0.422,-0.207 0.887,-0.309 1.391,-0.309 2.32,0 4.824,2.328 4.953,4.559 l 0.027,0.422 -2.609,4.129 c -4.746,7.429 -5.488,8.539 9.129,20.621" /><path
         id="path184"
         style="fill:#ffffff;fill-opacity:1;fill-rule:nonzero;stroke:none"
         d="m 420.336,255.039 0.277,0.383 c 3.297,4.976 14.614,16.109 20.883,20.617 l 0.504,0.371 0.039,0.629 c 0.094,1.172 -0.625,2.441 -1.894,3.5 -0.848,0.691 -1.911,1.012 -2.852,1.223 l -0.41,0.109 -0.395,-0.172 c -1.074,-0.418 -1.965,-0.578 -2.797,-0.578 -2.57,0 -5.398,1.957 -10.718,6.359 l -63.102,52.098 c -10.707,8.852 -11.644,10.133 -10.027,13.25 l 0.144,0.481 c 0.055,0.742 -0.172,1.863 -1.55,3.023 -1.219,1.008 -2.336,1.328 -3.368,1.059 l -0.488,-0.211 c -5.316,-4.239 -15.051,-11.239 -23.836,-16.7 l -0.441,-0.261 -0.145,-0.481 c -0.344,-1.207 0.028,-2.648 1.059,-4.019 0.929,-1.278 2.613,-2.758 4.308,-2.758 h 0.305 l 0.273,0.109 c 6.075,2.75 10.208,3.918 13.84,3.918 6.094,0 11.461,-3.547 19.825,-10.437 l 8.644,-7.16 c 1.703,-1.379 2.453,-2.121 2.391,-2.7 -0.11,-0.902 -1.5,-2.652 -3.617,-5.203 l -51.336,-62.117 c -7.59,-9.223 -10.918,-12.133 -13.684,-12.133 -1.777,0 -3.684,1.223 -6.637,3.282 l -7.093,4.671 -0.875,0.207 c -1.547,0 -2.903,-1.269 -3.657,-2.437 -0.859,-1.383 -1.062,-2.813 -0.543,-3.922 l 0.383,-0.48 c 10.828,-8.43 17.879,-13.989 24.305,-19.348 6.531,-5.402 13.207,-11.121 22.34,-19.18 l 0.547,-0.261 c 0.246,-0.059 0.496,-0.11 0.765,-0.11 1.152,0 2.36,0.629 3.309,1.75 0.996,1.11 1.5,2.539 1.343,3.711 l -0.058,0.481 -5.414,5.507 c -6.153,6.2 -7.106,7.153 4.965,21.731 l 51.347,62.121 c 1.934,2.379 3.766,4.609 4.641,4.609 0.578,0 1.652,-0.851 2.875,-1.91 l 8.824,-7.262 c 16.352,-13.519 16.414,-18.019 9.656,-30.046 l -0.261,-0.43 0.129,-0.531 c 0.718,-2.75 4.347,-5.243 6.828,-4.5 l 0.449,0.148" /><path
         id="path186"
         style="fill:#ffffff;fill-opacity:1;fill-rule:nonzero;stroke:none"
         d="m 548.039,193.559 0.43,0.273 0.156,0.418 c 1.934,5.621 10.055,19.289 14.973,25.23 l 0.398,0.481 -0.121,0.641 c -0.211,1.109 -1.23,2.218 -2.723,2.91 -0.996,0.418 -2.074,0.418 -3.062,0.418 h -0.442 l -0.339,-0.211 c -1.45,-1.059 -2.614,-1.481 -3.989,-1.481 -2.312,0 -5.492,1.274 -10.554,3.602 l -74.289,34.398 c -12.618,5.883 -13.848,6.84 -13.067,10.282 l 0.063,0.269 -0.051,0.262 c -0.133,0.687 -0.637,1.699 -2.266,2.488 -1.468,0.641 -2.609,0.691 -3.539,0.16 l -0.398,-0.32 c -4.102,-5.457 -11.754,-14.731 -18.856,-22.149 l -0.343,-0.371 -0.012,-0.531 c -0.024,-1.008 0.449,-2.066 1.39,-3.019 1.536,-1.59 3.961,-2.547 5.524,-2.168 l 0.531,0.211 c 7.039,5.718 11.504,7.839 16.457,7.839 4.785,0 10.352,-2.121 17.774,-5.562 l 10.199,-4.719 c 1.988,-0.961 2.89,-1.441 2.98,-2.019 0.133,-0.95 -0.976,-3.391 -2.175,-5.993 L 448.813,161.82 c -5.528,-11.929 -8.063,-15.371 -11.282,-15.371 -1.547,0 -3.508,0.68 -6.16,1.641 l -8.344,2.808 -0.32,-0.058 c -1.512,-0.211 -2.582,-1.692 -3.074,-3.02 -0.621,-1.64 -0.492,-3.23 0.355,-4.238 l 0.492,-0.371 c 12.567,-5.352 20.793,-9.012 28.418,-12.512 7.586,-3.488 15.508,-7.359 26.504,-12.929 l 0.282,-0.098 H 476 c 1.164,0 2.32,0.68 3.141,1.898 0.996,1.481 1.281,3.34 0.726,4.668 l -0.156,0.422 -6.637,3.922 c -7.527,4.457 -8.695,5.137 -0.719,22.316 l 33.883,73.141 c 1.801,3.871 2.688,5.621 3.535,5.621 0.649,0 1.778,-0.531 3.063,-1.121 l 10.375,-4.82 c 19.269,-8.899 20.473,-13.25 16.973,-26.547 l -0.133,-0.531 0.254,-0.481 c 1.152,-2.012 3.765,-3.129 5.66,-3.129 0.793,0 1.508,0.16 2.074,0.528" /><path
         id="path188"
         style="fill:#ffffff;fill-opacity:1;fill-rule:nonzero;stroke:none"
         d="m 642.277,200.449 -0.593,0.27 c -2.184,0.902 -4.254,1.801 -6.282,2.703 -6.254,2.758 -12.152,5.41 -19.941,7.098 -5.18,1.171 -10.203,1.75 -14.891,1.75 -19.308,0 -33.55,-10.18 -37.152,-26.551 -3.16,-14.309 3.68,-28.617 20.32,-42.61 l 7.446,-6.211 c 11.824,-9.91 16.05,-19.027 13.73,-29.519 -1.961,-8.8985 -9.023,-14.1485 -18.906,-14.1485 -2.254,0 -4.653,0.2695 -7.117,0.789 -20.438,4.5118 -25.2,30.0005 -25.942,35.0395 l -0.054,0.371 -0.215,0.269 c -1.735,2.172 -6.25,2.699 -8.231,0.742 l -0.261,-0.261 -0.094,-0.379 c -2.504,-10.492 -3.223,-24.59 -0.078,-30.0002 l 0.281,-0.3203 c 3.031,-2.6992 12.277,-10.9219 31.027,-15.0508 5.383,-1.168 10.602,-1.7383 15.535,-1.7383 20.731,0 35.442,10.5391 39.348,28.2496 4.324,19.547 -8.172,34.278 -19.383,43.129 l -10.84,8.75 c -10.269,8.219 -14.972,17.121 -13.238,25.02 2.371,10.762 11.977,16.012 24.766,13.199 15.519,-3.449 19.785,-16.219 20.636,-26.34 l 0.032,-0.429 0.293,-0.372 c 1.925,-2.117 6.578,-2.757 8.367,-0.847 l 0.246,0.269 0.086,0.371 c 1.98,9.008 2.605,21.52 1.281,26.18 l -0.176,0.578" /><path
         id="path190"
         style="fill:#ffffff;fill-opacity:1;fill-rule:nonzero;stroke:none"
         d="m 709.738,143.629 -1.179,0.062 c -7.286,0.11 -7.286,0.11 -7.235,3.809 l 0.543,33.77 c 0.11,6.14 0.11,6.359 6.797,6.359 0.797,0 1.656,0 2.613,0 6.45,-0.109 12.325,-2.02 16.508,-5.309 4.957,-3.922 7.41,-9.531 7.285,-16.691 -0.238,-15.418 -7.828,-22 -25.332,-22 z m 9.172,-62.8009 h -0.519 c -8.203,0.1133 -12.719,1.6914 -15.102,5.2422 -2.402,3.5586 -2.797,9.3281 -2.664,17.6017 l 0.422,26.816 c 0.055,2.864 0.066,3.453 6.598,3.453 l 1.367,-0.05 c 10.679,-0.172 19.504,-2.969 25.519,-8.172 6.028,-5.188 9.129,-12.66 8.985,-21.629 C 743.234,86.9219 730.09,80.8281 718.91,80.8281 Z m 20.692,59.7929 c 14.589,4.449 23.035,13.301 23.218,24.379 0.2,11.82 -4.355,19.98 -14.336,25.648 -8.296,4.614 -20.578,6.84 -39.859,7.153 -4.176,0.058 -8.078,0.109 -11.738,0.109 -12.43,0 -23.598,-0.371 -34.133,-1.058 l -0.559,-0.161 c -1.035,-0.582 -1.734,-1.691 -1.918,-3.082 -0.203,-1.64 0.317,-3.281 1.348,-4.289 l 0.332,-0.32 5.66,-0.68 c 8.094,-0.91 8.403,-1.648 8.11,-19.879 l -1.098,-68.261 c -0.32,-18.9808 -1.656,-19.0902 -10.406,-19.9808 l -4.848,-0.539 -0.32,-0.3086 c -1.075,-0.961 -1.602,-2.711 -1.36,-4.461 0.207,-1.4804 0.938,-2.6406 1.981,-3.1211 l 0.293,-0.1679 h 0.332 c 8.828,0.2187 18.23,0.2695 27.031,0.1679 3.645,-0.1093 7.461,-0.2812 11.426,-0.4804 4.34,-0.2188 8.824,-0.4297 13.445,-0.5274 1.274,0 2.516,0 3.723,0 20.605,0 33.402,2.9688 42.789,9.9571 10.68,7.7421 13.066,18.2421 13.195,25.7112 0.414,26.34 -24.234,32.808 -32.308,34.191" /><path
         id="path192"
         style="fill:#ffffff;fill-opacity:1;fill-rule:nonzero;stroke:none"
         d="m 907.891,177.66 c -3.356,14.051 -7.161,29.949 -5.793,35.781 0.504,2.438 3.007,3.758 6.812,5.457 l 4.067,1.961 0.488,0.371 c 0.82,1.11 1.047,2.602 0.57,4.079 -0.476,1.492 -1.566,2.601 -2.844,3.019 l -0.378,0.113 -0.395,-0.113 c -6.863,-2.008 -12.148,-3.496 -20.469,-5.508 -7.676,-1.8 -15.191,-3.39 -21.734,-4.609 l -0.41,-0.16 c -1.192,-0.641 -1.856,-1.961 -1.762,-3.5 0.094,-1.801 1.191,-3.391 2.73,-4.031 l 0.301,-0.149 4.348,0.418 c 4.808,0.43 7.871,-0.109 9.871,-2.019 4.734,-4.399 9.371,-23.79 11.863,-34.18 l 5.434,-22.692 c 3.363,-14.039 3.203,-25.589 -0.481,-34.289 -3.91,-9.269 -11.898,-15.418 -23.742,-18.2809 -22.586,-5.4062 -37.656,6.9919 -44.738,36.6839 l -9.938,41.539 c -4.414,18.398 -3.152,18.879 5.067,22.109 l 4.555,1.692 0.238,0.378 c 0.797,1.161 0.89,2.961 0.254,4.551 -0.555,1.328 -1.539,2.231 -2.703,2.489 l -0.321,0.062 -0.304,-0.113 c -8.426,-2.379 -17.161,-4.66 -25.969,-6.778 -8.813,-2.121 -17.543,-3.98 -25.242,-5.461 l -0.586,-0.269 c -0.914,-0.742 -1.387,-1.961 -1.274,-3.391 0.125,-1.699 1.024,-3.289 2.27,-3.968 l 0.355,-0.223 3.879,0.269 c 1.61,0.161 3,0.313 4.207,0.313 4.61,0 6.426,-1.371 10.336,-17.699 l 11.02,-46.114 c 4.507,-18.816 11.976,-30.7886 22.847,-36.5699 6.332,-3.3867 13.539,-5.0898 22.024,-5.0898 6.492,0 13.644,0.9609 21.886,2.9726 11.5,2.6993 27.043,9.0079 35.817,23.3201 6.891,11.239 7.848,25.809 3.023,46.008 l -5.179,21.621" /><path
         id="path194"
         style="fill:#ffffff;fill-opacity:1;fill-rule:nonzero;stroke:none"
         d="m 990.344,202.262 c -3.285,-1.813 -5.711,-3.082 -6.903,-3.082 -0.781,0 -1.253,0.691 -2.769,3.5 l -18.574,34.082 c -3.739,6.886 -3.739,6.886 4.425,11.347 4.383,2.379 8.852,3.551 13.305,3.551 9.235,0 17.621,-5.25 22.412,-14.051 8.27,-15.211 4.5,-26.449 -11.896,-35.347 z M 1089.15,189 l -0.38,0.059 -0.34,-0.161 c -0.99,-0.418 -4.54,-1.808 -9.54,-1.808 -1.54,0 -3.09,0.109 -4.64,0.379 -11.35,1.801 -27.78,10.91 -52.65,24.64 l -1.28,0.75 c -0.76,0.313 -1.07,0.68 -1.07,0.68 6.46,7.582 16.03,22.691 7.18,38.91 -5.78,10.653 -15.47,16.223 -28.012,16.223 -0.582,0 -1.168,0 -1.738,0 -9.528,-0.274 -22.008,-4.621 -37.117,-12.832 -15.208,-8.32 -29.719,-16.899 -39.821,-23.641 l -0.394,-0.371 c -0.625,-1.058 -0.672,-2.379 -0.145,-3.656 0.625,-1.531 1.871,-2.703 3.277,-3.024 l 0.418,-0.109 5.278,2.18 c 2.531,1.062 4.054,1.48 5.301,1.48 3.308,0 5.55,-3.808 11.554,-14.84 l 32.676,-59.988 c 9.059,-16.652 7.961,-17.391 0.793,-22.473 l -3.898,-2.816 -0.129,-0.32 c -0.621,-1.274 -0.481,-2.801 0.398,-4.192 0.875,-1.359 2.289,-2.269 3.629,-2.269 l 0.797,0.211 c 7.84,4.66 15.738,9.168 23.463,13.41 7.83,4.238 15.78,8.379 23.64,12.25 l 0.49,0.367 c 0.7,0.941 0.82,2.27 0.32,3.711 -0.6,1.691 -1.88,2.961 -3.3,3.34 l -0.41,0.101 -4.55,-1.75 c -2.78,-1.121 -4.73,-1.859 -6.33,-1.859 -3.19,0 -5.92,3.289 -12.14,14.688 l -11.417,20.992 c -0.442,0.789 -1.075,1.949 -0.93,2.269 0.293,0.528 2.203,1.59 3.883,2.5 2.886,1.578 4.808,2.43 6.703,2.43 1.591,0 3.321,-0.582 6.001,-2.063 3.38,-1.75 7.12,-3.976 11.1,-6.308 5,-2.969 10.18,-5.988 14.98,-8.43 11.32,-5.558 19.55,-7.89 27.52,-7.89 7.23,0 14.32,2.011 22.33,6.351 5.07,2.758 8.78,5.199 11.34,7.481 l 0.4,0.367 0.04,0.531 c 0.13,1.641 -1.19,4.238 -3.28,4.5" /><path
         id="path196"
         style="fill:#ffffff;fill-opacity:1;fill-rule:nonzero;stroke:none"
         d="m 1198.89,290.93 -0.33,0.05 -0.3,-0.109 c -2.93,-1 -6.21,0.848 -10.96,6.051 l -7.31,7.949 c -7.69,8.367 -7.17,9.539 -3.05,14.41 l 2.28,2.867 0.26,0.532 c 0.27,1.269 -0.09,2.648 -0.97,3.711 -1.16,1.429 -3.06,2.058 -4.68,1.531 l -0.55,-0.32 c -5.66,-5.672 -10.59,-10.493 -17.61,-16.903 -9.76,-8.961 -17.2,-15.527 -23.4,-20.719 l -0.3,-0.269 -0.11,-0.371 c -0.36,-1.11 -0.06,-2.442 0.78,-3.61 0.99,-1.32 2.56,-2.218 3.99,-2.218 h 0.41 l 6.42,4.289 c 4.85,3.238 7.71,4.879 9.84,4.879 2.53,0 4.77,-2.282 9.58,-7.532 l 4.53,-4.976 c 4.08,-4.402 6.07,-7.313 6.27,-9.012 0.08,-2.34 -1.56,-6.629 -9.81,-14.211 -9.79,-9.008 -22.68,-14.359 -34.49,-14.359 -1.25,0 -2.49,0.051 -3.75,0.211 -17.27,1.59 -30.62,12.508 -38.78,21.41 -22.88,24.969 -22.5,52.738 1.04,74.359 14.68,13.469 30.61,15.641 45.03,6 l 0.37,-0.16 c 1.85,-0.59 4.01,1.012 5.04,2.281 1,1.321 1.41,2.75 1.11,3.918 l -0.1,0.371 -0.27,0.27 c -5.66,5.398 -10.41,9.578 -14.25,12.98 -3.28,2.911 -5.89,5.25 -7.69,7.102 l -0.9,0.906 -0.95,-0.906 c -1.76,-1.594 -6.51,-4.934 -10.41,-7.262 -5.97,-3.761 -14.59,-9.59 -21.75,-16.16 -20.29,-18.609 -31.62,-39.488 -32.71,-60.379 -1.07,-16.851 4.74,-33.07 16.38,-45.793 11.3,-12.289 26.91,-19.609 42.84,-19.976 0.51,0 1.02,0 1.52,0 h 0.01 c 19.19,0 39.53,9.328 58.8,27.027 9.66,8.852 20.1,22.742 25.49,30.27 2.1,3.121 4.34,5.98 5.89,7.371 l 0.3,0.308 0.09,0.371 c 0.17,0.743 0,1.59 -0.5,2.282 -0.56,0.847 -1.46,1.437 -2.34,1.539" /><path
         id="path198"
         style="fill:#ffffff;fill-opacity:1;fill-rule:nonzero;stroke:none"
         d="m 1311.26,447.125 c -1.3,1.434 -3.43,2.227 -5.06,1.801 l -0.41,-0.156 -3.07,-3.821 c -2.76,-3.496 -4.32,-5.347 -6.8,-5.347 -3.1,0 -8.28,2.804 -15.61,7.312 l -59.21,36.305 c -16.13,9.855 -15.57,11.133 -11.89,19.136 l 1.53,3.602 -0.01,0.316 c -0.11,2.864 -4.78,4.989 -6.89,3.555 l -0.44,-0.476 c -3.76,-6.836 -8.26,-14.528 -13.01,-22.317 -4.63,-7.523 -9.54,-15.16 -14.62,-22.738 l -0.22,-0.582 c -0.09,-0.957 0.28,-1.961 1.07,-2.813 1.41,-1.586 3.78,-2.382 5.22,-1.746 l 3.29,3.871 c 2.77,3.496 4.33,5.352 6.81,5.352 3.09,0 8.25,-2.809 15.61,-7.316 l 19.25,-11.766 c 2.28,-1.43 2.65,-1.902 2.6,-2.598 -0.1,-1.429 -1.7,-4.082 -3.93,-7.738 l -24.54,-40.012 c -2.75,-4.508 -4.5,-7.211 -5.73,-7.211 -0.68,0 -1.74,0.633 -2.88,1.321 l -19.25,11.773 c -16.15,9.906 -15.58,11.129 -11.88,19.188 l 1.4,3.441 v 0.32 c -0.12,2.809 -4.77,4.93 -6.91,3.547 l -0.42,-0.476 c -3.68,-6.731 -8.15,-14.364 -12.92,-22.153 -4.69,-7.629 -9.73,-15.527 -14.61,-22.738 l -0.21,-0.582 c -0.11,-0.957 0.26,-1.957 1.05,-2.809 1.43,-1.64 3.78,-2.441 5.24,-1.75 l 3.27,3.871 c 2.77,3.5 4.33,5.348 6.81,5.348 3.1,0 8.28,-2.809 15.61,-7.309 l 59.19,-36.261 c 16.15,-9.91 15.61,-11.129 12.06,-19.231 l -1.31,-2.968 0.08,-0.43 c 0.45,-2.168 3.04,-3.86 5.05,-3.86 0.67,0 1.31,0.211 1.82,0.52 l 0.42,0.48 c 3.51,6.411 8.05,14.211 12.83,21.989 4.54,7.371 9.37,14.953 15.23,23.75 l 0.22,0.582 c 0.11,0.961 -0.26,1.969 -1.03,2.871 -1.29,1.43 -3.42,2.219 -5.06,1.75 l -0.41,-0.113 -4.08,-5.09 c -2.92,-3.867 -4.34,-5.41 -6.69,-5.41 -3.07,0 -8.22,2.761 -15.56,7.261 l -23.38,14.321 c -2.18,1.371 -2.52,1.8 -2.48,2.539 0.13,1.379 1.72,4.082 3.96,7.742 l 24.54,40.019 c 2.75,4.5 4.51,7.204 5.7,7.204 0.66,0 1.71,-0.633 2.75,-1.274 l 23.39,-14.312 c 16.15,-9.911 15.58,-11.129 11.91,-19.129 l -2.01,-4.45 0.09,-0.429 c 0.44,-2.172 3.02,-3.813 5.03,-3.813 0.68,0 1.31,0.153 1.82,0.524 l 0.44,0.429 c 4.22,7.629 8.81,15.469 13.64,23.368 4.63,7.531 9.48,15.062 14.41,22.421 l 0.21,0.586 c 0.12,0.954 -0.25,1.961 -1.02,2.809" /><path
         id="path200"
         style="fill:#ffffff;fill-opacity:1;fill-rule:nonzero;stroke:none"
         d="m 265.809,1080.34 -13.676,9.5 c -8.43,5.85 -18.906,13.12 -21.149,16.78 -0.804,1.26 -0.277,2.81 0.704,5.22 l 1.23,3.18 -0.055,0.43 c -0.371,2.6 -3.601,4.08 -5.59,3.3 l -0.503,-0.21 -0.293,-0.47 c -2.512,-4.14 -4.383,-7.06 -7.579,-11.65 -2.945,-4.27 -5.937,-8.31 -8.621,-11.73 l -0.285,-0.53 c -0.273,-0.91 -0.078,-1.93 0.559,-2.79 1.019,-1.39 2.984,-2.15 4.519,-1.7 l 0.426,0.12 2.145,2.24 c 1.976,2.01 3.472,2.87 5.007,2.87 l 0.45,-0.01 c 4.492,-0.34 16.699,-8.82 23.257,-13.37 l 14.375,-9.98 c 18.247,-12.66 23.137,-25.38 14.512,-37.81 -8.519,-12.3 -22.129,-11.73 -40.523,1.04 l -26.313,18.28 c -11.234,7.79 -10.933,8.41 -8.601,13.24 l 1.566,3.15 -0.117,0.56 c -0.481,2.26 -3.742,4.17 -5.715,3.12 l -0.394,-0.21 -0.239,-0.37 c -3.062,-4.9 -6.324,-9.86 -9.687,-14.71 -3.379,-4.88 -6.836,-9.61 -10.004,-13.67 l -0.281,-0.37 -0.051,-0.45 c -0.094,-0.88 0.238,-1.81 0.949,-2.62 0.918,-1.02 2.281,-1.68 3.488,-1.68 l 1.02,0.12 2.043,2.01 c 1.906,2.01 2.812,2.82 4.004,2.82 2.051,0 5.89,-2.38 11.418,-6.21 l 29.207,-20.27 c 10.215,-7.09 18.902,-10.54 26.582,-10.54 1.414,0 2.836,0.12 4.183,0.37 8.907,1.54 16.512,7.24 23.903,17.9 4.535,6.54 9.312,16.8 6.375,28.57 -2.293,9.16 -9.371,17.58 -22.246,26.53" /><path
         id="path202"
         style="fill:#ffffff;fill-opacity:1;fill-rule:nonzero;stroke:none"
         d="m 381.984,1138.68 -0.476,0.39 c -1.547,1.31 -7.723,7.73 -16.945,17.58 l -22.833,24.44 c -6.953,7.44 -15.625,16.7 -17.132,20.85 -0.504,1.36 0.187,2.63 1.777,4.74 l 1.988,2.95 0.024,0.43 c 0.078,1.05 -0.34,2.12 -1.192,3.03 -0.886,0.95 -2.066,1.52 -3.148,1.52 l -1.067,-0.13 -0.371,-0.4 c -3.152,-3.35 -5.519,-5.78 -9.765,-9.74 -3.656,-3.42 -7.246,-6.6 -11.297,-10 l -0.371,-0.43 c -0.547,-0.94 -0.492,-2.12 0.144,-3.22 0.676,-1.16 1.961,-2.37 3.946,-2.35 l 0.464,0.05 2.848,2 c 2.719,1.8 4.188,2.25 5.82,1.76 4.438,-1.4 14.52,-12.19 19.942,-17.98 l 18.426,-19.73 c -3.918,0.36 -10.508,1.14 -16.094,1.8 -3.582,0.42 -6.945,0.83 -9.422,1.08 l -19.957,2.04 c -8.082,0.83 -29.547,3.89 -34.727,6.46 l -1.113,0.57 -0.836,-0.94 c -1.984,-2.25 -4.148,-4.48 -6.254,-6.45 l -1.258,-1.18 c -2.585,-2.44 -6.906,-6.52 -10.269,-9.04 l -0.441,-0.49 c -0.54,-0.94 -0.477,-2.16 0.191,-3.31 0.676,-1.18 2.09,-2.43 3.629,-2.43 h 0.449 l 2.094,1.26 c 2.043,1.21 4.941,2.46 6.215,2.52 h 0.465 c 4.769,0 5.96,-1.29 12.628,-8.42 l 23.254,-24.88 c 7.325,-7.84 15.629,-16.75 17.223,-20.77 0.504,-1.34 -0.238,-2.71 -1.879,-4.84 l -1.871,-2.85 -0.039,-0.43 c -0.066,-1.04 0.363,-2.12 1.191,-3.03 0.903,-0.95 2.082,-1.52 3.168,-1.52 l 1.047,0.13 0.371,0.4 c 3.102,3.26 5.567,5.76 9.672,9.6 3.649,3.42 7.524,6.85 11.211,9.91 l 0.371,0.47 c 0.543,0.95 0.473,2.15 -0.172,3.26 -0.675,1.15 -2.078,2.3 -3.91,2.3 h -0.008 l -0.468,-0.02 -2.743,-1.91 c -2.796,-1.85 -4.453,-2.32 -5.882,-1.87 -4.375,1.5 -14.457,12.28 -19.891,18.09 l -18.613,19.93 c -1.461,1.56 -2.668,2.85 -3.567,3.83 2.278,-0.23 5.379,-0.61 9.473,-1.13 2.797,-0.36 6.086,-0.77 9.883,-1.23 l 48.062,-6.19 c 14.59,-1.87 20.711,-2.73 24.262,-3.43 l 0.727,-0.15 0.597,0.45 c 1.91,1.5 2.891,3.82 2.543,6.03 l -0.094,0.62" /><path
         id="path204"
         style="fill:#ffffff;fill-opacity:1;fill-rule:nonzero;stroke:none"
         d="m 434.934,1182.3 -0.551,0.12 -3.184,-1.51 c -1.722,-0.85 -2.914,-1.39 -3.844,-1.39 -1.824,0 -4.05,2.45 -9.167,10.1 l -28.926,43.25 c -7.594,11.35 -7.09,11.81 -3.071,15.35 l 2.606,2.35 0.094,0.56 c 0.222,1.37 -0.481,2.78 -1.207,3.64 -0.805,0.97 -1.813,1.44 -3.047,1.48 l -0.449,-0.05 -0.356,-0.26 c -4.641,-3.44 -9.453,-6.82 -14.289,-10.08 -4.992,-3.32 -10.027,-6.52 -14.969,-9.49 l -0.386,-0.23 -0.211,-0.4 c -0.477,-0.86 -0.454,-1.95 0.062,-3.1 0.481,-1.07 1.566,-2.44 3.035,-2.78 l 0.555,-0.12 3.184,1.51 c 1.722,0.85 2.917,1.39 3.843,1.39 1.828,0 4.055,-2.45 9.168,-10.09 l 28.93,-43.25 c 7.59,-11.36 7.074,-11.81 3.07,-15.36 l -2.609,-2.34 -0.094,-0.56 c -0.226,-1.37 0.465,-2.78 1.203,-3.65 0.813,-0.96 1.809,-1.48 2.774,-1.48 l 0.718,0.05 0.356,0.27 c 4.527,3.35 9.551,6.88 14.523,10.2 4.832,3.23 9.801,6.39 14.746,9.36 l 0.383,0.23 0.211,0.39 c 0.481,0.88 0.449,1.98 -0.062,3.13 -0.493,1.07 -1.563,2.42 -3.039,2.76" /><path
         id="path206"
         style="fill:#ffffff;fill-opacity:1;fill-rule:nonzero;stroke:none"
         d="m 498.289,1314.23 -0.547,0.09 -0.488,-0.28 c -3.231,-1.79 -7.051,-3.72 -11.328,-5.72 -3.711,-1.74 -7.817,-3.5 -12.895,-5.55 l -0.504,-0.2 -0.277,-0.48 c -0.52,-0.85 -0.609,-1.96 -0.266,-3.11 0.411,-1.35 1.317,-2.48 2.438,-3 l 0.48,-0.24 4.407,0.84 c 0.679,0.13 1.246,0.21 1.726,0.21 0.731,0 1.258,0 1.629,-4.77 1.484,-17.73 2.41,-35.67 3.313,-53.03 l 0.16,-2.98 c -3.11,2.82 -7.645,6.94 -11.117,10.32 l -19.133,18.55 c -9.078,8.83 -12.949,12.67 -13.383,13.54 0.016,0.1 0.211,0.63 2.066,2.11 l 2.633,2.16 0.442,0.56 c 0.527,1.1 0.472,2.46 -0.149,3.67 -0.609,1.21 -1.676,2.04 -2.875,2.25 l -0.543,0.11 -0.492,-0.26 c -6.383,-3.28 -10.344,-5.27 -15.551,-7.71 -4.762,-2.21 -9.926,-4.46 -14.566,-6.33 l -0.5,-0.32 c -0.77,-0.71 -1.086,-1.8 -0.86,-2.98 0.286,-1.52 1.375,-2.95 2.661,-3.46 l 0.464,-0.18 3.672,0.8 c 1.082,0.26 1.918,0.37 2.645,0.37 2.613,0 4.668,-1.56 10.336,-6.94 l 45.847,-43.62 c 3.739,-3.48 8.164,-8.16 13.118,-13.9 l 0.418,-0.46 0.601,-0.09 c 0.242,-0.03 0.496,-0.04 0.734,-0.04 0.93,0 1.891,0.2 2.739,0.61 0.41,0.18 2.469,1.21 2.676,2.84 l 0.031,0.22 -0.031,0.21 c -0.977,7.37 -2.266,24.63 -2.875,38.48 l -0.805,23.54 c -0.488,12.46 -0.852,21.46 -0.402,28.2 0.281,3.97 2.148,5.74 4.351,7.46 l 3.274,2.46 0.062,0.72 c 0.184,1.94 -1.02,4.98 -3.336,5.33" /><path
         id="path208"
         style="fill:#ffffff;fill-opacity:1;fill-rule:nonzero;stroke:none"
         d="m 616.723,1270.23 -0.387,0.4 c -1.734,1.78 -5.367,1.53 -6.797,-0.43 l -0.293,-0.76 c -1.484,-11.42 -2.793,-15.58 -18.433,-19.41 -5.125,-1.35 -8.516,-1.98 -10.688,-1.98 -1.777,0 -2.504,0.43 -3.152,0.9 -2.188,1.57 -3.743,6.84 -5.25,12.59 l -4.52,17.17 c -0.168,0.67 -0.492,1.89 -0.598,1.95 0.223,0.18 1.211,0.43 1.54,0.52 l 6.121,1.6 c 4.492,1.18 7.816,2.02 9.882,2.02 1.844,0 2.707,-0.51 3.95,-3.33 l 2.57,-5.75 0.586,-0.25 c 1.894,-0.82 5.457,-0.07 6.238,2.17 l 0.176,0.5 -1.301,4.35 c -0.965,3.18 -2,6.57 -2.957,10.21 -1.004,3.82 -1.84,7.61 -2.543,10.82 l -0.711,3.21 -0.347,0.32 c -1.618,1.61 -5.375,0.78 -6.653,-1.21 l -0.277,-0.45 0.355,-5.43 c 0.465,-4.39 0.176,-4.89 -11.394,-7.93 l -6.133,-1.62 c -0.504,-0.13 -1.285,-0.33 -1.324,-0.5 -0.199,0.27 -0.531,1.51 -0.703,2.19 l -6.02,22.86 c -0.816,3.11 -1.402,5.36 -1.148,6.12 0.156,0.46 2.011,0.94 3.379,1.31 l 8.547,2.25 c 3.64,0.96 6.718,1.43 9.136,1.43 0.309,0 0.614,0 0.985,-0.02 3.484,0 5.882,-2.28 9.859,-9.36 l 0.262,-0.48 0.508,-0.21 c 0.433,-0.2 0.953,-0.3 1.507,-0.3 1.727,0 4.325,1.08 4.696,3.11 l 0.089,0.48 -0.183,0.44 c -1.059,2.57 -2.375,6.18 -3.609,9.52 -1.508,4.09 -2.793,7.61 -3.442,8.86 l -0.703,1.39 -1.418,-0.64 c -1.352,-0.6 -8.133,-2.56 -16.867,-4.85 l -24.383,-6.41 c -5.805,-1.53 -11.805,-2.96 -16.496,-3.91 l -0.449,-0.1 -0.321,-0.3 c -0.742,-0.67 -1.074,-1.74 -0.949,-2.99 0.106,-1.16 0.688,-2.78 1.957,-3.58 l 0.5,-0.32 2.653,0.34 c 0.996,0.1 1.843,0.19 2.597,0.19 2.543,0 3.699,-0.49 6.93,-12.79 l 13.254,-50.31 c 3.469,-13.19 2.836,-13.45 -2.106,-15.35 l -5.14,-2.01 -0.293,-0.53 c -0.719,-1.32 -0.41,-3.03 0.062,-4.09 0.516,-1.14 1.328,-1.9 2.293,-2.12 l 0.442,-0.1 0.418,0.13 c 5.808,1.82 13.703,4.03 18.961,5.42 l 14.55,3.82 c 15.121,3.98 26.035,6.71 31.567,7.88 l 1.054,0.22 0.204,1.06 c 0.871,4.32 0.996,15.4 0.226,21.53 l -0.066,0.54" /><path
         id="path210"
         style="fill:#ffffff;fill-opacity:1;fill-rule:nonzero;stroke:none"
         d="m 679.699,1309.43 c -2.566,-3.23 -6.719,-5.04 -12.695,-5.51 -1.32,-0.11 -2.356,-0.19 -3.18,-0.19 -1.097,0 -1.336,0.15 -1.351,0.16 -0.2,0.25 -0.317,1.59 -0.395,2.76 l -2.336,29.01 c -0.152,2.07 -0.324,4.22 0.082,4.72 0.477,0.57 3.098,0.77 4.852,0.92 0.488,0.04 0.961,0.05 1.441,0.05 8.946,0 15.77,-7.3 16.602,-17.74 0.508,-6.32 -0.477,-10.94 -3.02,-14.18 z m 43.703,-45.15 h -0.535 c -0.695,0.02 -4.445,0.19 -8.449,3.28 -6.293,4.7 -13.832,15.98 -25.246,33.05 l -0.594,0.88 c -0.07,0.1 -0.117,0.19 -0.172,0.27 6.078,3.36 15.426,10.84 14.321,24.56 -0.977,12.25 -8.227,18.07 -14.125,20.78 -5.918,2.82 -14.879,3.82 -26.207,2.9 -11.379,-0.9 -22.43,-2.25 -30.332,-3.68 l -0.696,-0.32 c -0.797,-0.62 -1.25,-1.61 -1.304,-2.82 -0.04,-1.41 0.492,-2.79 1.382,-3.59 l 0.45,-0.4 4.05,-0.17 c 4.641,-0.15 4.918,-0.16 6.004,-13.75 l 4.078,-51.06 c 1.09,-13.62 0.426,-13.76 -4.808,-14.91 l -3.309,-0.74 -0.336,-0.32 c -0.894,-0.87 -1.265,-2.26 -0.996,-3.7 0.258,-1.43 1.039,-2.55 2.074,-3 l 0.411,-0.17 0.437,0.05 c 6.027,0.77 11.965,1.38 17.648,1.83 5.829,0.46 11.711,0.79 17.465,0.96 l 0.45,0.02 0.371,0.24 c 0.836,0.54 1.351,1.52 1.461,2.78 0.101,1.16 -0.188,2.87 -1.305,3.88 l -0.422,0.39 -3.512,0.22 c -5.34,0.29 -6.019,0.33 -7.117,13.95 l -1.43,17.86 c -0.023,0.41 -0.089,1.28 -0.234,1.28 v 0 c 0.316,0.17 1.785,0.29 2.582,0.34 3.473,0.28 4.504,0.4 7.063,-3.39 1.574,-2.27 3.285,-4.97 5.031,-7.74 2.281,-3.58 4.617,-7.27 6.906,-10.44 8.363,-11.38 16.129,-17.99 30.41,-16.87 3.91,0.31 6.785,0.82 9.024,1.61 l 0.648,0.23 0.293,0.63 c 0.598,1.25 0.488,3.69 -1.008,4.78 l -0.422,0.3" /><path
         id="path212"
         style="fill:#ffffff;fill-opacity:1;fill-rule:nonzero;stroke:none"
         d="m 797.961,1346.91 -0.793,0.22 c -1.484,0.43 -2.902,0.9 -4.293,1.34 -4.348,1.41 -8.457,2.73 -13.785,3.17 -18.613,1.57 -31.469,-8.37 -32.848,-24.53 -0.949,-11.16 4.746,-21.23 16.926,-29.94 l 5.375,-3.83 c 8.391,-5.98 11.676,-11.93 11.012,-19.87 -0.688,-8.07 -6.528,-12.82 -15.145,-12.1 -13.172,1.13 -18.152,19.08 -19.027,22.67 l -0.09,0.41 -0.293,0.31 c -1.641,1.8 -5.273,1.64 -6.676,-0.38 l -0.285,-0.76 c -0.805,-8.15 -0.133,-18.83 2.43,-22.61 l 0.371,-0.38 c 2.238,-1.71 9.101,-6.92 21.902,-8 1.367,-0.13 2.692,-0.18 3.985,-0.18 17.226,0 29.234,10.3 30.586,26.25 1.351,16.03 -9.688,25.97 -16.391,30.46 l -7.754,5.31 c -7.168,4.86 -10.84,10.74 -10.332,16.56 0.512,6.15 4.461,12.74 14.32,11.88 7.965,-0.67 12.965,-6.3 14.867,-16.74 l 0.094,-0.52 0.371,-0.36 c 1.762,-1.74 5.512,-1.62 6.774,0.35 l 0.25,0.74 c 0.531,6.28 0.105,16.07 -1.27,19.76 l -0.281,0.77" /><path
         id="path214"
         style="fill:#ffffff;fill-opacity:1;fill-rule:nonzero;stroke:none"
         d="m 874.578,1333.73 -0.437,0.08 c -5.754,0.99 -11.532,2.14 -17.176,3.38 -5.813,1.29 -11.621,2.72 -17.227,4.26 l -0.433,0.1 -0.438,-0.1 c -0.953,-0.29 -1.734,-1.07 -2.199,-2.25 -0.426,-1.07 -0.664,-2.79 0.117,-4.09 l 0.293,-0.49 3.285,-1.23 c 5.012,-1.84 5.657,-2.1 2.715,-15.43 l -11.262,-50.8 c -2.73,-12.35 -3.828,-12.97 -6.574,-12.97 -0.703,0 -1.484,0.06 -2.398,0.13 l -3.496,0.27 -0.461,-0.32 c -1.246,-0.85 -1.766,-2.51 -1.832,-3.66 -0.078,-1.26 0.308,-2.31 1.058,-2.95 l 0.332,-0.3 0.45,-0.07 c 5.566,-0.96 11.597,-2.14 17.414,-3.44 5.722,-1.27 11.433,-2.67 16.976,-4.18 l 0.434,-0.12 0.437,0.12 c 0.942,0.26 1.723,1.04 2.199,2.21 0.426,1.08 0.665,2.81 -0.101,4.09 l -0.293,0.49 -3.301,1.25 c -5.012,1.86 -5.644,2.09 -2.707,15.43 l 11.25,50.81 c 2.735,12.34 3.832,12.97 6.574,12.97 0.703,0 1.5,-0.06 2.411,-0.14 l 3.488,-0.27 0.472,0.31 c 1.25,0.86 1.77,2.51 1.832,3.68 0.067,1.26 -0.32,2.3 -1.058,2.94 l -0.344,0.29" /><path
         id="path216"
         style="fill:#ffffff;fill-opacity:1;fill-rule:nonzero;stroke:none"
         d="m 990.422,1295.53 -0.129,0.66 c -0.195,1.08 -1.086,2 -2.359,2.49 -0.676,0.26 -1.508,0.27 -2.454,0.15 l -0.531,-0.06 -0.394,-0.36 c -1.125,-1.03 -1.856,-1.25 -2.676,-1.25 -1.379,0 -3.356,0.66 -6.293,1.8 l -50.223,19.38 c -8.797,3.41 -8.73,3.76 -8.371,5.72 l 0.067,0.3 -0.067,0.3 c -0.187,0.99 -0.914,1.79 -2.043,2.21 -1.246,0.49 -2.32,0.4 -3.125,-0.21 l -0.398,-0.45 c -2.664,-4.27 -7.649,-11.64 -12.321,-17.71 l -0.347,-0.43 v -0.55 c -0.016,-0.91 0.387,-1.8 1.152,-2.57 1.285,-1.3 3.313,-1.9 4.649,-1.4 l 0.586,0.38 c 4.996,5.1 8.07,6.91 11.714,6.91 2.797,0 6.172,-1.08 10.375,-2.7 l 6.891,-2.67 c 0.371,-0.15 1.375,-0.53 1.508,-0.63 0.109,-0.52 -0.727,-2.7 -1.336,-4.27 L 912.5,1244.21 c -3.937,-10.18 -5.344,-11.82 -7.184,-11.82 -0.859,0 -2.011,0.32 -3.48,0.75 l -5.848,1.43 -0.422,-0.11 c -1.086,-0.3 -2.011,-1.4 -2.468,-2.92 -0.434,-1.44 -0.278,-2.75 0.457,-3.6 l 0.285,-0.33 0.418,-0.15 c 8.555,-2.97 14.109,-5 19.183,-6.95 5.219,-2.02 10.571,-4.22 17.875,-7.36 l 0.411,-0.17 0.421,0.05 c 0.997,0.12 1.899,0.78 2.532,1.87 0.582,1.01 1.074,2.68 0.488,4.07 l -0.207,0.54 -4.758,2.52 c -4.691,2.44 -5.301,2.76 -0.387,15.49 l 21.786,56.36 c 0.625,1.57 1.457,3.75 1.789,4.02 0.332,0 1.191,-0.33 1.656,-0.51 l 7.023,-2.71 c 12.524,-4.85 13.313,-7.61 11.196,-17.38 l -0.133,-0.61 0.305,-0.54 c 1.164,-2.09 4.636,-2.96 6.398,-1.57 l 0.41,0.32 0.16,0.5 c 1.223,4.25 6.442,14.86 9.629,19.58 l 0.387,0.55" /><path
         id="path218"
         style="fill:#ffffff;fill-opacity:1;fill-rule:nonzero;stroke:none"
         d="m 1088,1236.15 -0.45,0.24 c -3.58,1.86 -7.2,3.91 -10.78,6.13 -3.14,1.93 -6.38,4.05 -11.52,7.57 l -0.55,0.28 h -0.51 c -1.07,0 -2.09,-0.51 -2.89,-1.48 -0.89,-1.09 -1.28,-2.5 -1.03,-3.69 l 0.09,-0.47 3.3,-3.35 c 1.04,-0.88 1.18,-1.19 1.15,-1.29 -0.75,-1.23 -5.1,-4.07 -7.41,-5.59 -8.99,-5.67 -17.48,-10.96 -26.6,-16.55 0.77,8.43 2.02,17.23 3.32,26.49 l 0.96,6.79 c 0.71,4.14 1.11,6.11 1.38,6.82 0.11,0 0.45,-0.06 1.51,-0.52 l 4.19,-1.65 0.47,0.09 c 1.24,0.23 2.33,1.21 2.97,2.62 0.56,1.25 0.57,2.47 0.03,3.4 l -0.26,0.43 -0.44,0.21 c -2.54,1.22 -9.2,5.14 -14.46,8.39 -4.53,2.78 -9.21,5.81 -13.87,9.02 l -1.1,0.31 c -0.93,0 -1.87,-0.51 -2.68,-1.43 -0.76,-0.87 -1.51,-2.26 -1.34,-3.58 l 0.07,-0.55 2.9,-2.93 c 3.91,-3.71 3.89,-5.04 3.24,-11.47 l -3.89,-36.57 c -0.72,-8.03 -1.31,-9.86 -5.26,-16.28 l -4.33,-7.03 c -4.843,-7.87 -6.976,-10.4 -8.776,-10.4 -0.914,0 -2.094,0.52 -3.817,1.33 l -4.414,1.97 -0.555,-0.15 c -1.46,-0.39 -2.492,-1.8 -2.929,-2.87 -0.473,-1.17 -0.465,-2.28 0.039,-3.13 l 0.23,-0.38 0.379,-0.22 c 6.535,-3.68 11.613,-6.64 16.443,-9.64 4.63,-2.84 9.31,-5.84 16.71,-10.77 l 0.36,-0.24 0.61,-0.03 c 0.98,0 1.96,0.53 2.75,1.51 0.74,0.9 1.42,2.37 1.15,3.76 l -0.14,0.6 -4.45,3.47 c -4.47,3.46 -4.93,3.83 2.23,15.45 l 4.4,7.16 c 4.91,7.99 7.02,9.72 13.94,13.7 l 3.23,1.92 c 6.33,3.79 12.88,7.7 19.72,11.5 8.74,4.89 12.41,6.88 15.55,6.88 1.12,0 2.26,-0.25 3.79,-0.84 l 4.23,-1.46 0.54,0.17 c 1.25,0.42 2.35,1.52 2.87,2.86 0.43,1.07 0.42,2.15 -0.06,3.04 l -0.24,0.45" /><path
         id="path220"
         style="fill:#ffffff;fill-opacity:1;fill-rule:nonzero;stroke:none"
         d="m 1179.5,1123.61 c -2.76,-8.62 -8.98,-17.92 -17.1,-25.53 -10.32,-9.68 -20.47,-14.81 -29.35,-14.81 -6.13,0 -11.71,2.48 -16.12,7.18 -6.55,6.96 -8.05,15.78 -4.49,26.23 2.86,8.37 9,17.41 16.87,24.79 10.1,9.49 20.2,14.49 29.22,14.49 8.12,0 13.47,-3.88 16.53,-7.14 7.71,-8.2 6.68,-18.25 4.44,-25.21 z m 16.49,-6.56 c 1.4,13.19 -3.19,25.84 -13.29,36.58 -9.47,10.08 -21.86,15.65 -34.89,15.65 -12.82,0 -25.59,-5.38 -35.99,-15.12 -9.51,-8.93 -15.22,-20.5 -16.07,-32.57 -0.94,-13.12 3.85,-25.65 13.81,-36.25 9.31,-9.89 21.56,-15.33 34.55,-15.33 12.5,0 24.8,5.09 34.66,14.34 9.84,9.24 15.96,20.86 17.22,32.7" /><path
         id="path222"
         style="fill:#ffffff;fill-opacity:1;fill-rule:nonzero;stroke:none"
         d="m 1267.86,1037.44 c -1.58,2 -5.48,7.7 -10.37,15.25 l -13.59,20.91 c -3.35,5.15 -6.36,10.08 -8.5,13.87 l -0.24,0.4 -0.4,0.23 c -1.79,1.03 -5.31,-0.52 -5.92,-3.04 l -0.11,-0.53 0.91,-2.11 c 2.19,-4.93 2.48,-5.56 -8.99,-12.99 l -43.62,-28.36 c -5.55,-3.62 -9.4,-5.86 -11.48,-5.86 -1.22,0 -2.04,0.82 -3.91,2.99 l -2.3,2.64 -1.15,0.16 c -1.25,0 -2.64,-0.67 -3.6,-1.71 -0.71,-0.77 -1.07,-1.67 -1,-2.51 l 0.04,-0.46 0.26,-0.37 c 3.48,-4.83 6.86,-9.76 10.01,-14.64 2.94,-4.5 5.91,-9.31 10.62,-17.11 l 0.22,-0.37 0.38,-0.19 c 0.42,-0.26 0.9,-0.38 1.43,-0.38 1.74,0 4.03,1.43 4.49,3.37 l 0.15,0.57 -2.72,5.62 c -2.45,4.64 -2.76,5.23 8.69,12.66 l 16.4,10.67 c 0.57,0.37 1.64,1.06 1.67,1.19 0.23,-0.15 0.78,-1.02 0.97,-1.29 l 4.24,-6.54 c 6.43,-9.91 6.3,-10.58 3.12,-13.69 l -4,-3.86 -0.41,-0.67 c -0.35,-1.09 -0.07,-2.46 0.8,-3.64 0.79,-1.1 1.87,-1.74 3.09,-1.74 h 0.01 l 0.47,0.03 2.97,2.09 c 2.89,2.04 6.05,4.28 9.36,6.43 3.41,2.21 6.9,4.28 9.73,5.97 l 2.56,1.53 0.22,0.42 c 0.49,0.97 0.4,2.21 -0.26,3.4 -0.56,1.03 -1.67,2.18 -3.08,2.33 l -0.37,0.04 -4.94,-1.85 c -1.34,-0.52 -2.26,-0.75 -2.99,-0.75 -2.1,0 -3.95,2.51 -8.26,9.17 l -4.24,6.52 c -0.18,0.28 -0.74,1.14 -0.84,1.14 h -0.01 c 0.16,0.26 1.24,0.96 1.81,1.32 l 20.99,13.66 c 2.65,1.7 4.56,2.95 5.33,2.95 0.47,0 1.5,-1.56 2.24,-2.72 l 3.65,-5.65 c 2.4,-3.69 3.9,-6.3 4.92,-9.49 1.26,-4.06 -0.39,-7.4 -6.33,-12.79 l -0.53,-0.49 v -0.73 c 0.02,-2.19 1.97,-4.85 4.58,-4.83 0.03,0 0.04,0 0.04,0 l 0.73,0.27 c 5.14,3.64 13.59,9.15 16.7,11.17 l 1.49,0.98 -1.13,1.41" /></g></g></svg>